<svg width="62" height="10" viewBox="0 0 62 10" fill="none" xmlns="http://www.w3.org/2000/svg">
<path d="M2.98003 2.77108C3.33763 2.77108 3.6714 2.83936 3.98132 2.9759C4.29124 3.10442 4.56143 3.28916 4.79189 3.53012C5.03029 3.76305 5.21307 4.03614 5.34021 4.3494C5.47531 4.66265 5.54286 5 5.54286 5.36145C5.54286 5.73896 5.47531 6.08835 5.34021 6.40964C5.20512 6.73092 5.0144 7.01205 4.76805 7.25301C4.5217 7.48594 4.2237 7.67068 3.87404 7.80723C3.53233 7.94377 3.15486 8.01205 2.74163 8.01205C2.35224 8.01205 1.99861 7.95181 1.68074 7.83133C1.36287 7.71084 1.08473 7.55422 0.846329 7.36145C0.615873 7.16064 0.429124 6.93173 0.286083 6.6747C0.143041 6.40964 0.0476805 6.13253 0 5.84337L1.72842 5.72289C1.76815 5.85944 1.83173 5.97992 1.91914 6.08434C1.99066 6.17269 2.09397 6.25703 2.22906 6.33735C2.36416 6.40964 2.53501 6.44578 2.74163 6.44578C3.0436 6.44578 3.2979 6.34137 3.50452 6.13253C3.71113 5.92369 3.81444 5.66667 3.81444 5.36145C3.81444 5.05622 3.71113 4.7992 3.50452 4.59036C3.2979 4.38153 3.0436 4.27711 2.74163 4.27711C2.54296 4.27711 2.38005 4.30924 2.2529 4.37349C2.12576 4.43775 2.02245 4.50602 1.94298 4.57831C1.85557 4.66667 1.78404 4.76707 1.72842 4.87952H0.178802L0.655607 0.361445H5.00645V2.04819H2.09794L1.96682 3.07229C2.05423 3.01606 2.1496 2.96787 2.2529 2.92771C2.34032 2.88755 2.44363 2.85141 2.56283 2.81928C2.68997 2.78715 2.82904 2.77108 2.98003 2.77108Z" fill="white"/>
<path d="M11.9234 7.40964C11.7724 7.52209 11.5936 7.62249 11.387 7.71084C11.2121 7.79116 11.0055 7.86345 10.7671 7.92771C10.5287 7.98394 10.2585 8.01205 9.95656 8.01205C9.44797 8.01205 8.96719 7.91566 8.51423 7.72289C8.06921 7.52209 7.67982 7.249 7.34605 6.90361C7.01229 6.5502 6.74607 6.14056 6.54741 5.6747C6.35668 5.20884 6.26132 4.70281 6.26132 4.15663C6.26132 3.61847 6.35668 3.11647 6.54741 2.6506C6.74607 2.17671 7.01229 1.76707 7.34605 1.42169C7.67982 1.06827 8.06921 0.795181 8.51423 0.60241C8.96719 0.401606 9.44797 0.301205 9.95656 0.301205C10.4652 0.301205 10.942 0.401606 11.387 0.60241C11.8399 0.795181 12.2333 1.06827 12.5671 1.42169C12.9008 1.76707 13.1631 2.17671 13.3538 2.6506C13.5525 3.11647 13.6518 3.61847 13.6518 4.15663C13.6518 4.51004 13.6121 4.82731 13.5326 5.10843C13.4611 5.38153 13.3816 5.61847 13.2942 5.81928C13.1909 6.05221 13.0717 6.26104 12.9366 6.44578L13.6518 7.16867L12.6982 8.19277L11.9234 7.40964ZM11.9234 4.15663C11.9234 3.84337 11.8717 3.55422 11.7684 3.28916C11.6651 3.0241 11.5221 2.79518 11.3393 2.60241C11.1645 2.40964 10.9579 2.26104 10.7194 2.15663C10.481 2.04418 10.2268 1.98795 9.95656 1.98795C9.68637 1.98795 9.43208 2.04418 9.19367 2.15663C8.95527 2.26104 8.74468 2.40964 8.56191 2.60241C8.38708 2.79518 8.24801 3.0241 8.1447 3.28916C8.0414 3.55422 7.98974 3.84337 7.98974 4.15663C7.98974 4.46988 8.0414 4.75904 8.1447 5.0241C8.24801 5.28916 8.38708 5.51807 8.56191 5.71084C8.74468 5.90362 8.95527 6.05622 9.19367 6.16867C9.43208 6.27309 9.68637 6.3253 9.95656 6.3253C10.1552 6.3253 10.3261 6.30522 10.4691 6.26506C10.5486 6.249 10.6161 6.22892 10.6718 6.20482L9.89696 5.42169L10.8506 4.39759L11.685 5.24096C11.7327 5.13655 11.7724 5.0241 11.8042 4.90361C11.836 4.7992 11.8638 4.68273 11.8876 4.55422C11.9115 4.4257 11.9234 4.29317 11.9234 4.15663Z" fill="white"/>
<path d="M17.4681 0.361445H19.1965V6.26506H22.5938V7.95181H17.4681V0.361445Z" fill="white"/>
<path d="M22.9542 5.18072C22.9542 4.77108 23.0257 4.39357 23.1687 4.04819C23.3197 3.69478 23.5223 3.38956 23.7766 3.13253C24.0309 2.86747 24.325 2.66265 24.6587 2.51807C25.0004 2.36546 25.366 2.28916 25.7554 2.28916C26.1448 2.28916 26.5063 2.36546 26.8401 2.51807C27.1818 2.66265 27.4798 2.86747 27.7341 3.13253C27.9884 3.38956 28.1871 3.69478 28.3301 4.04819C28.4811 4.39357 28.5566 4.77108 28.5566 5.18072C28.5566 5.59036 28.4811 5.97189 28.3301 6.3253C28.1871 6.67068 27.9884 6.9759 27.7341 7.24096C27.4798 7.49799 27.1818 7.70281 26.8401 7.85542C26.5063 8 26.1448 8.07229 25.7554 8.07229C25.366 8.07229 25.0004 8 24.6587 7.85542C24.325 7.70281 24.0309 7.49799 23.7766 7.24096C23.5223 6.9759 23.3197 6.67068 23.1687 6.3253C23.0257 5.97189 22.9542 5.59036 22.9542 5.18072ZM26.9474 5.18072C26.9474 4.75502 26.8322 4.41767 26.6017 4.16867C26.3713 3.91968 26.0891 3.79518 25.7554 3.79518C25.4216 3.79518 25.1395 3.91968 24.909 4.16867C24.6786 4.41767 24.5634 4.75502 24.5634 5.18072C24.5634 5.60643 24.6786 5.94378 24.909 6.19277C25.1395 6.44177 25.4216 6.56627 25.7554 6.56627C26.0891 6.56627 26.3713 6.44177 26.6017 6.19277C26.8322 5.94378 26.9474 5.60643 26.9474 5.18072Z" fill="white"/>
<path d="M31.7783 2.3494C32.0167 2.3494 32.2313 2.38153 32.422 2.44578C32.6127 2.51004 32.7756 2.57831 32.9107 2.6506C33.0617 2.73896 33.2008 2.83936 33.3279 2.95181L33.5663 2.40964H34.7583V7.46988C34.7583 7.83132 34.6908 8.16466 34.5557 8.46988C34.4285 8.78313 34.2458 9.05221 34.0074 9.27711C33.769 9.50201 33.4789 9.67871 33.1372 9.80723C32.8034 9.93574 32.4299 10 32.0167 10C31.5081 10 31.0869 9.90361 30.7532 9.71084C30.4274 9.51807 30.1691 9.30522 29.9784 9.07229C29.7479 8.7992 29.5731 8.48594 29.4539 8.13253L31.0631 8.01205C31.1108 8.11647 31.1783 8.20884 31.2657 8.28916C31.3373 8.35341 31.4326 8.41365 31.5518 8.46988C31.679 8.5261 31.8339 8.55422 32.0167 8.55422C32.3505 8.55422 32.6207 8.4498 32.8273 8.24096C33.0418 8.03213 33.1491 7.7751 33.1491 7.46988V7.16867C33.0617 7.25703 32.9504 7.33735 32.8154 7.40964C32.7041 7.4739 32.5611 7.53012 32.3862 7.57831C32.2193 7.62651 32.0167 7.6506 31.7783 7.6506C31.4366 7.6506 31.1108 7.58233 30.8008 7.44578C30.4989 7.30924 30.2327 7.1245 30.0022 6.89157C29.7797 6.6506 29.6009 6.36948 29.4658 6.04819C29.3386 5.72691 29.2751 5.37751 29.2751 5C29.2751 4.62249 29.3386 4.27309 29.4658 3.95181C29.6009 3.63052 29.7797 3.35341 30.0022 3.12048C30.2327 2.87952 30.4989 2.69076 30.8008 2.55422C31.1108 2.41767 31.4366 2.3494 31.7783 2.3494ZM30.8843 5C30.8843 5.33735 30.9876 5.61446 31.1942 5.83133C31.4088 6.04016 31.6829 6.14458 32.0167 6.14458C32.3505 6.14458 32.6207 6.04016 32.8273 5.83133C33.0418 5.61446 33.1491 5.33735 33.1491 5C33.1491 4.66265 33.0418 4.38956 32.8273 4.18072C32.6207 3.96385 32.3505 3.85542 32.0167 3.85542C31.6829 3.85542 31.4088 3.96385 31.1942 4.18072C30.9876 4.38956 30.8843 4.66265 30.8843 5Z" fill="white"/>
<path d="M37.6196 7.95181H36.0104V2.40964H37.6196V7.95181ZM35.9508 0.903614C35.9508 0.662651 36.0382 0.453815 36.2131 0.277108C36.3958 0.0923695 36.6064 0 36.8448 0C37.0832 0 37.2898 0.0923695 37.4647 0.277108C37.6474 0.453815 37.7388 0.662651 37.7388 0.903614C37.7388 1.14458 37.6474 1.35743 37.4647 1.54217C37.2898 1.71888 37.0832 1.80723 36.8448 1.80723C36.6064 1.80723 36.3958 1.71888 36.2131 1.54217C36.0382 1.35743 35.9508 1.14458 35.9508 0.903614Z" fill="white"/>
<path d="M40.2421 6.14458C40.2738 6.32932 40.3493 6.47791 40.4685 6.59036C40.5877 6.69478 40.7506 6.74699 40.9573 6.74699C41.1639 6.74699 41.3228 6.6988 41.4341 6.60241C41.5533 6.49799 41.6129 6.38554 41.6129 6.26506C41.6129 6.16868 41.5413 6.09237 41.3983 6.03614C41.2632 5.97189 41.0924 5.91165 40.8857 5.85542C40.6791 5.79116 40.4526 5.71888 40.2063 5.63855C39.9679 5.55823 39.7454 5.45382 39.5388 5.3253C39.3322 5.18875 39.1573 5.01205 39.0143 4.79518C38.8792 4.57831 38.8116 4.30522 38.8116 3.9759C38.8116 3.751 38.8593 3.53815 38.9547 3.33735C39.05 3.12851 39.1851 2.94779 39.36 2.79518C39.5427 2.64257 39.7613 2.52209 40.0156 2.43373C40.2778 2.33735 40.5718 2.28916 40.8977 2.28916C41.6129 2.28916 42.1572 2.4498 42.5307 2.77108C42.9042 3.09237 43.1347 3.49398 43.2221 3.9759L41.6725 4.09639C41.6407 3.9759 41.5692 3.86747 41.4579 3.77108C41.3467 3.66667 41.1996 3.61446 41.0169 3.61446C40.8341 3.61446 40.699 3.65462 40.6116 3.73494C40.5242 3.81526 40.4805 3.91566 40.4805 4.03614C40.4805 4.14056 40.548 4.22088 40.6831 4.27711C40.8261 4.33333 41.001 4.39357 41.2076 4.45783C41.4142 4.51406 41.6367 4.58233 41.8751 4.66265C42.1215 4.74297 42.3479 4.85141 42.5546 4.98795C42.7612 5.11647 42.932 5.28916 43.0671 5.50602C43.2102 5.72289 43.2817 5.99598 43.2817 6.3253C43.2817 6.5502 43.23 6.76707 43.1267 6.9759C43.0314 7.18474 42.8883 7.37349 42.6976 7.54217C42.5069 7.70281 42.2724 7.83132 41.9943 7.92771C41.7241 8.0241 41.4182 8.07229 41.0765 8.07229C40.3295 8.07229 39.7652 7.90763 39.3838 7.57831C39.0103 7.249 38.7799 6.81125 38.6924 6.26506L40.2421 6.14458Z" fill="white"/>
<path d="M44.7158 3.91566H43.8814V2.53012H44.2986C44.7357 2.53012 44.9542 2.30924 44.9542 1.86747V1.08434H46.325V2.40964H47.4575V3.91566H46.325V5.72289C46.325 5.96386 46.3926 6.15663 46.5277 6.3012C46.6628 6.43775 46.8336 6.50602 47.0402 6.50602C47.1038 6.50602 47.1594 6.50602 47.2071 6.50602C47.2548 6.49799 47.2985 6.48996 47.3383 6.48193C47.378 6.4739 47.4177 6.46185 47.4575 6.44578V7.89157C47.3939 7.91566 47.3224 7.93574 47.2429 7.95181C47.084 7.99197 46.8972 8.01205 46.6826 8.01205C46.0549 8.01205 45.5701 7.83936 45.2284 7.49398C44.8867 7.14056 44.7158 6.63052 44.7158 5.96386V3.91566Z" fill="white"/>
<path d="M50.2615 7.95181H48.6523V2.40964H50.2615V7.95181ZM48.5927 0.903614C48.5927 0.662651 48.6801 0.453815 48.8549 0.277108C49.0377 0.0923695 49.2483 0 49.4867 0C49.7251 0 49.9317 0.0923695 50.1065 0.277108C50.2893 0.453815 50.3807 0.662651 50.3807 0.903614C50.3807 1.14458 50.2893 1.35743 50.1065 1.54217C49.9317 1.71888 49.7251 1.80723 49.4867 1.80723C49.2483 1.80723 49.0377 1.71888 48.8549 1.54217C48.6801 1.35743 48.5927 1.14458 48.5927 0.903614Z" fill="white"/>
<path d="M54.1355 2.28916C54.4057 2.28916 54.6521 2.32129 54.8746 2.38554C55.0971 2.44177 55.2957 2.52209 55.4706 2.62651C55.6454 2.73092 55.7964 2.84739 55.9235 2.9759C56.0586 3.10442 56.1739 3.23695 56.2692 3.37349C56.4917 3.69478 56.6546 4.05622 56.7579 4.45783L55.1487 4.57831C55.0931 4.43373 55.0216 4.30522 54.9342 4.19277C54.8547 4.09639 54.7474 4.00803 54.6123 3.92771C54.4852 3.83936 54.3262 3.79518 54.1355 3.79518C53.8017 3.79518 53.5196 3.91968 53.2892 4.16867C53.0587 4.41767 52.9435 4.75502 52.9435 5.18072C52.9435 5.60643 53.0587 5.94378 53.2892 6.19277C53.5196 6.44177 53.8017 6.56627 54.1355 6.56627C54.3262 6.56627 54.4852 6.5261 54.6123 6.44578C54.7474 6.36546 54.8547 6.27711 54.9342 6.18072C55.0216 6.06827 55.0931 5.93574 55.1487 5.78313L56.7579 5.90361C56.6546 6.30522 56.4917 6.66667 56.2692 6.98795C56.1739 7.1245 56.0586 7.25703 55.9235 7.38554C55.7964 7.51406 55.6454 7.63052 55.4706 7.73494C55.2957 7.83936 55.0971 7.91968 54.8746 7.9759C54.6521 8.04016 54.4057 8.07229 54.1355 8.07229C53.7461 8.07229 53.3806 8 53.0389 7.85542C52.7051 7.70281 52.4111 7.49799 52.1568 7.24096C51.9025 6.9759 51.6998 6.67068 51.5488 6.3253C51.4058 5.97189 51.3343 5.59036 51.3343 5.18072C51.3343 4.77108 51.4058 4.39357 51.5488 4.04819C51.6998 3.69478 51.9025 3.38956 52.1568 3.13253C52.4111 2.86747 52.7051 2.66265 53.0389 2.51807C53.3806 2.36546 53.7461 2.28916 54.1355 2.28916Z" fill="white"/>
<path d="M58.9604 6.14458C58.9922 6.32932 59.0677 6.47791 59.1869 6.59036C59.3061 6.69478 59.469 6.74699 59.6756 6.74699C59.8822 6.74699 60.0411 6.6988 60.1524 6.60241C60.2716 6.49799 60.3312 6.38554 60.3312 6.26506C60.3312 6.16868 60.2597 6.09237 60.1166 6.03614C59.9815 5.97189 59.8107 5.91165 59.6041 5.85542C59.3974 5.79116 59.171 5.71888 58.9246 5.63855C58.6862 5.55823 58.4637 5.45382 58.2571 5.3253C58.0505 5.18875 57.8756 5.01205 57.7326 4.79518C57.5975 4.57831 57.53 4.30522 57.53 3.9759C57.53 3.751 57.5776 3.53815 57.673 3.33735C57.7684 3.12851 57.9035 2.94779 58.0783 2.79518C58.2611 2.64257 58.4796 2.52209 58.7339 2.43373C58.9961 2.33735 59.2902 2.28916 59.616 2.28916C60.3312 2.28916 60.8755 2.4498 61.249 2.77108C61.6225 3.09237 61.853 3.49398 61.9404 3.9759L60.3908 4.09639C60.359 3.9759 60.2875 3.86747 60.1762 3.77108C60.065 3.66667 59.918 3.61446 59.7352 3.61446C59.5524 3.61446 59.4173 3.65462 59.3299 3.73494C59.2425 3.81526 59.1988 3.91566 59.1988 4.03614C59.1988 4.14056 59.2663 4.22088 59.4014 4.27711C59.5445 4.33333 59.7193 4.39357 59.9259 4.45783C60.1325 4.51406 60.355 4.58233 60.5934 4.66265C60.8398 4.74297 61.0663 4.85141 61.2729 4.98795C61.4795 5.11647 61.6503 5.28916 61.7854 5.50602C61.9285 5.72289 62 5.99598 62 6.3253C62 6.5502 61.9483 6.76707 61.845 6.9759C61.7497 7.18474 61.6066 7.37349 61.4159 7.54217C61.2252 7.70281 60.9908 7.83132 60.7126 7.92771C60.4424 8.0241 60.1365 8.07229 59.7948 8.07229C59.0478 8.07229 58.4836 7.90763 58.1021 7.57831C57.7286 7.249 57.4982 6.81125 57.4108 6.26506L58.9604 6.14458Z" fill="white"/>
</svg>
