<svg width="640" height="811" viewBox="0 0 640 811" fill="none" xmlns="http://www.w3.org/2000/svg">
<path d="M134.001 176.426C137.067 176.426 137.374 177.35 139.826 176.426C142.279 175.503 149.637 170.578 152.396 169.655C154.849 169.039 156.382 169.963 152.703 171.81C149.024 173.964 141.666 178.273 142.892 177.965C144.119 177.657 148.104 176.119 153.316 173.348C158.528 170.886 158.221 171.81 159.448 169.347C160.674 166.577 161.594 165.346 161.594 165.346C161.594 165.346 169.872 173.964 170.791 174.272C171.711 174.58 172.018 174.272 172.324 173.041C172.631 172.117 173.551 170.578 174.777 170.886C176.003 171.502 175.084 173.348 175.697 173.656C176.31 173.964 177.536 173.656 179.682 172.733C181.828 172.117 180.909 170.271 180.909 170.271C180.909 170.271 180.602 170.271 183.361 169.963C185.814 169.655 194.092 172.733 196.238 173.656C198.691 174.58 205.742 175.503 207.888 176.119C210.034 176.734 210.647 174.887 213.407 176.426C216.166 177.965 218.312 179.812 216.166 181.043C214.02 181.967 208.808 182.89 211.567 183.505C214.326 184.121 218.312 185.044 222.298 185.044C226.283 185.044 233.028 183.505 235.174 183.505C237.32 183.505 238.547 184.737 240.693 188.122C242.839 191.508 244.372 192.739 244.985 193.047C245.905 193.355 244.065 191.508 244.678 189.661C244.985 188.122 244.372 184.737 243.758 183.505C243.145 182.274 243.758 181.967 242.839 180.12C241.919 178.581 240.386 178.889 243.145 177.35C245.905 175.811 248.051 173.964 251.423 174.272C254.795 174.58 255.715 179.196 258.781 179.504C261.847 179.812 262.46 181.043 267.365 181.351C272.577 181.659 270.431 181.351 275.95 181.659C281.775 181.967 279.629 181.043 280.855 177.965C282.081 174.887 283.308 174.58 284.841 174.58C286.067 174.58 290.972 175.503 290.972 176.119C290.972 176.734 288.826 179.812 290.053 181.351C290.972 182.89 295.265 185.352 295.265 185.352C295.265 185.352 294.345 181.659 294.345 181.351C294.345 181.043 294.038 178.273 294.651 177.658C295.265 177.042 298.637 177.965 300.783 173.656C302.929 169.347 299.25 169.655 299.25 169.655C299.25 169.655 298.024 169.655 298.637 168.116C299.25 166.269 303.236 165.346 303.236 165.346C303.236 165.346 303.542 166.269 302.929 164.73C302.316 163.191 299.863 163.499 297.104 163.499C294.345 163.191 292.505 162.884 292.199 160.729C291.586 158.575 291.586 153.65 291.586 150.264C291.586 146.879 294.345 148.11 294.651 146.263C295.265 144.416 294.651 135.491 293.732 133.644C293.119 131.797 294.651 127.796 294.958 125.334C295.265 122.564 298.024 123.795 298.024 123.795C297.411 122.871 298.944 120.409 302.316 119.178C305.995 118.254 312.74 119.178 312.74 119.178C312.74 119.178 312.127 119.178 310.594 121.332C309.061 123.487 309.981 127.488 307.528 129.95C305.075 132.721 298.637 131.797 298.637 131.797C298.637 131.797 300.476 136.414 299.863 137.645C298.944 139.184 298.637 141.954 298.637 141.954C298.637 141.954 304.156 143.493 304.462 147.187C304.769 150.88 307.528 151.496 308.141 154.573C308.754 157.959 305.382 160.729 305.995 161.037C306.608 161.653 306.915 161.653 309.061 161.96C311.207 161.96 313.966 162.576 313.966 162.576C313.966 162.576 312.74 164.115 313.966 165.962C314.886 167.808 314.273 168.732 314.273 170.886C314.273 172.733 315.499 174.272 316.112 173.964C316.725 173.656 318.872 168.732 319.178 166.577C319.791 164.423 320.098 163.191 321.018 163.191C321.937 163.191 325.31 166.269 325.616 167.193C325.923 168.116 326.23 169.655 324.39 172.733C322.551 175.503 322.857 177.042 324.39 177.965C325.923 179.196 325.923 178.889 328.682 180.12C331.441 181.351 330.828 181.351 332.668 180.735C334.507 180.12 332.055 175.811 332.055 175.811C332.361 175.811 336.04 175.195 335.427 173.041C334.507 170.886 333.588 169.655 335.427 168.424C337.267 167.193 338.493 166.269 338.493 166.269C337.573 164.73 337.573 164.73 336.04 161.037C334.814 157.344 337.267 158.267 342.479 158.575C347.69 158.882 347.997 160.729 350.45 162.268C353.209 163.807 351.369 164.115 352.289 166.269C353.209 168.424 350.143 168.732 350.143 168.732C350.143 168.732 347.997 169.039 348.61 170.886C349.223 172.733 350.143 174.58 351.676 177.35C353.209 180.12 351.369 181.967 348.917 184.121C346.464 186.276 343.705 186.891 340.946 186.891C338.186 186.891 336.96 188.122 336.96 187.199C336.653 186.276 335.427 185.66 333.894 185.968C332.361 186.276 328.989 187.507 330.215 188.122C331.441 188.43 334.507 188.43 333.281 190.892C332.055 193.355 330.828 193.355 328.069 193.047C325.31 192.739 322.857 192.739 321.324 192.739C319.791 192.739 311.514 192.124 311.514 192.124C311.514 192.124 317.032 195.509 321.631 197.048C325.923 198.587 330.828 197.664 330.828 197.664C330.828 197.664 328.989 201.049 326.843 204.743C324.697 208.436 322.551 206.897 321.018 206.897C319.178 207.205 318.258 208.436 314.886 209.052C311.514 209.36 304.462 208.128 305.688 208.744C306.608 209.36 307.221 210.283 309.061 210.283C310.9 210.591 312.127 210.899 313.966 212.437C315.499 213.976 312.74 214.284 310.594 214.592C308.448 214.9 307.835 215.515 306.915 216.747C305.995 218.285 302.009 223.518 300.783 225.365C299.557 226.904 298.637 229.981 298.024 233.059C297.411 236.445 294.651 240.446 295.878 241.062C297.104 241.985 301.703 241.985 303.849 243.216C305.688 244.447 308.141 250.603 309.674 252.758C311.207 254.912 312.433 256.759 313.966 254.912C315.499 253.065 318.872 253.681 321.937 254.604C325.003 255.836 331.441 260.145 333.281 261.991C335.121 263.838 338.799 263.53 342.479 264.146C346.464 264.761 346.771 266.3 346.771 266.3C346.771 266.3 350.756 266.608 349.223 268.147C347.69 269.994 347.077 268.147 348.61 271.225C350.143 273.995 350.143 277.996 349.837 280.151C349.223 281.997 355.048 281.074 357.501 282.613C359.954 284.152 359.954 290 361.487 289.384C362.713 288.769 364.859 287.23 365.166 285.691C365.472 284.152 365.166 281.997 364.859 279.227C364.553 276.457 363.939 271.533 362.713 269.686C361.487 267.839 365.166 266.916 364.553 265.993C363.939 265.069 364.246 263.53 366.699 262.915C369.151 262.299 369.458 262.915 370.684 261.684C371.911 260.76 372.217 255.528 372.524 253.989C372.83 252.142 372.217 248.449 371.604 246.91C370.991 245.371 368.538 240.754 367.618 239.831C366.699 238.907 365.472 238.599 367.925 235.522C370.378 232.444 368.845 233.059 368.538 232.136C368.232 231.213 367.618 228.75 367.312 226.596C366.699 224.441 368.232 221.979 367.312 219.209C366.392 216.131 365.472 216.747 365.779 216.131C366.086 215.515 371.604 215.515 375.896 216.131C380.188 216.439 381.721 215.823 382.948 215.823C384.174 215.823 386.32 217.054 388.773 218.593C391.225 220.132 392.145 219.824 393.065 221.671C394.291 223.518 394.904 224.441 397.357 224.441C399.81 224.441 402.569 225.365 402.569 225.365C402.569 225.365 400.73 226.288 401.036 229.674C401.343 233.059 400.73 235.522 400.73 236.753C400.73 237.984 401.343 238.292 402.569 238.292C403.795 238.599 406.861 241.062 409.927 242.293C412.993 243.524 413.913 243.216 414.832 240.446C415.752 237.984 416.059 237.984 417.285 237.984C418.511 237.676 418.818 238.292 419.431 237.676C420.044 237.06 418.511 236.137 418.818 234.29C419.125 232.444 420.964 230.289 422.497 228.75C424.03 227.519 424.95 229.981 426.176 232.444C427.402 234.906 431.694 242.908 432.921 245.371C434.147 248.141 435.68 248.141 434.147 250.603C432.614 253.065 432.001 253.989 434.147 255.22C436.6 256.451 438.439 258.298 438.439 260.145C438.133 261.991 437.826 261.991 438.439 262.607C439.359 263.222 442.118 261.684 443.958 262.607C446.104 263.53 448.557 264.454 449.783 265.685C451.316 267.224 451.009 267.531 449.17 268.455C447.024 269.07 445.184 269.994 443.958 270.609C443.038 271.225 441.199 272.456 441.505 273.379C441.505 274.303 441.199 275.842 442.732 274.611C444.264 273.379 447.024 272.148 448.863 271.533C450.703 270.917 449.476 271.533 451.009 271.225C452.849 270.917 454.382 272.148 456.834 272.764C459.287 273.379 458.674 274.918 458.061 276.457C457.448 277.996 456.834 279.227 457.754 280.766C458.674 282.305 457.448 283.844 455.301 285.691C453.155 287.538 451.622 287.845 448.25 288.461C444.878 288.769 443.345 290.923 440.892 293.078C438.439 295.232 437.213 294.617 433.841 294.925C430.468 295.232 431.695 293.078 430.775 293.693C429.548 294.001 428.322 295.232 426.176 295.54C424.03 295.848 416.365 295.848 413.606 296.771C410.847 297.695 411.767 299.541 410.847 301.08C410.234 302.619 409.007 302.004 406.861 302.619C404.715 303.235 402.262 306.62 399.503 310.93C397.051 315.239 393.678 318.009 393.678 318.009C394.291 317.701 397.97 315.546 399.503 313.392C401.343 311.237 408.394 306.313 410.54 304.774C412.686 303.235 417.592 300.773 418.818 301.388C420.044 301.696 422.804 303.85 422.804 305.082C422.804 306.313 421.884 307.236 420.044 309.083C417.898 310.93 415.446 309.083 415.446 310.006C415.752 310.93 416.978 312.468 418.511 313.084C420.044 313.392 420.044 315.239 420.044 316.47C420.044 317.393 419.125 318.624 422.804 321.702C426.483 324.78 428.935 325.088 431.388 324.78C434.147 324.472 432.614 325.703 433.841 325.703C434.76 325.703 435.067 323.549 435.374 321.702C435.68 320.163 436.293 318.316 437.213 317.701C438.133 317.085 438.746 315.546 439.053 318.316C439.359 320.779 437.826 324.472 436.6 325.088C435.374 326.011 435.374 326.934 435.374 327.55C435.374 328.473 433.841 328.473 430.162 330.32C426.483 332.475 425.256 332.782 424.643 332.475C424.03 332.167 422.497 332.782 420.964 334.321C419.125 335.86 417.285 338.015 416.059 338.015C414.832 338.015 413.606 337.399 415.446 335.553C417.285 333.706 417.898 331.244 419.738 330.32C421.577 329.397 422.497 329.397 423.723 329.397C425.256 329.397 424.643 328.473 425.563 327.55C426.789 326.627 424.643 326.934 422.497 326.627C420.351 326.319 421.884 324.472 421.884 324.472L419.738 325.703C419.738 325.703 416.672 327.242 415.752 327.55C414.832 327.55 415.139 328.166 414.832 328.473C414.526 328.781 411.46 329.089 411.46 329.089C411.46 329.089 409.927 332.167 407.474 332.782C405.022 333.09 406.861 333.09 405.022 333.706C403.489 334.321 403.795 332.782 403.182 333.398C402.876 333.706 402.569 334.321 400.73 335.553C398.89 337.091 397.664 337.399 396.437 342.632C395.211 347.864 396.744 349.711 396.744 350.326C396.744 351.25 394.291 349.711 393.678 350.326C393.065 350.942 391.532 352.789 389.692 353.404C387.853 354.02 383.867 354.943 382.948 355.866C382.028 356.79 382.028 358.021 381.721 360.176C381.415 362.022 378.962 366.639 378.962 366.639C378.962 366.639 379.575 364.792 377.736 363.561C376.203 362.33 376.509 361.099 376.509 361.099C376.509 361.099 376.203 362.946 376.816 364.792C377.429 366.639 378.655 368.486 378.042 370.64C377.429 372.795 376.509 375.257 375.283 375.873C374.057 376.488 375.59 374.334 375.59 372.795C375.59 371.256 374.67 370.948 374.363 370.025C373.75 369.101 373.75 366.947 374.67 364.177C375.59 361.407 373.75 362.946 372.83 365.1C371.911 366.947 370.991 370.64 372.524 372.795C374.057 374.949 371.604 374.949 372.524 378.027C373.75 381.413 371.297 382.952 371.604 383.567C372.217 384.183 373.444 383.26 374.057 385.106C374.67 386.645 372.83 386.03 372.217 386.337C371.604 386.645 371.911 387.261 372.217 388.184C372.524 389.108 373.444 388.492 373.137 388.8C372.83 389.108 371.911 390.339 370.378 390.647C368.845 391.262 368.845 390.339 367.618 391.57C366.699 392.801 366.086 393.724 364.859 394.956C363.939 396.187 363.02 395.879 362.1 396.802C360.874 397.726 360.567 398.341 359.341 399.572C358.114 400.803 355.048 402.342 353.516 404.497C351.983 406.651 352.289 407.267 351.676 410.653C350.756 414.038 353.516 420.194 355.355 426.042C357.195 431.89 357.808 430.351 357.501 432.198C357.195 434.045 356.581 436.199 355.355 437.43C354.129 438.661 353.516 436.507 351.676 435.276C349.837 434.045 351.369 433.121 349.53 430.351C347.997 427.581 347.997 426.658 347.69 424.811C347.384 422.964 347.077 420.194 346.464 418.04C345.544 415.885 343.705 413.115 340.639 414.346C337.88 415.27 338.493 414.962 336.96 414.346C335.427 414.038 331.135 412.192 329.295 413.423C327.149 414.654 320.711 413.115 319.178 413.423C317.952 413.731 316.725 413.731 316.725 414.962C316.725 416.193 316.112 416.193 318.565 416.808C321.018 417.424 320.711 418.347 320.404 419.271C320.098 420.194 318.565 418.655 317.339 418.347C316.419 418.04 315.499 419.271 313.966 419.271C312.433 419.271 312.127 417.732 310.594 417.424C309.061 417.116 308.448 417.424 306.915 416.808C305.382 416.193 303.542 415.269 302.009 415.269C300.476 415.269 293.732 419.579 290.972 422.041C287.907 424.195 285.454 426.658 284.841 428.504C284.228 430.351 283.921 430.659 286.374 433.121C288.826 435.891 287.6 435.276 287.293 437.122C286.68 438.661 285.454 440.508 283.614 444.509C281.775 448.511 283.001 450.357 284.841 454.359C286.987 458.36 288.826 461.13 290.359 462.669C291.892 464.208 293.118 466.054 294.651 466.67C296.184 467.286 296.491 467.593 297.104 468.209C297.717 468.825 297.717 469.132 299.863 468.517C302.009 467.901 303.849 466.978 305.382 466.978C306.915 466.978 308.448 466.978 309.367 467.901C310.287 468.825 310.287 468.209 310.287 467.901C310.287 467.593 310.9 465.747 311.207 465.439C311.514 465.131 313.66 462.053 313.966 460.206C314.273 458.668 314.273 455.282 316.419 454.974C318.565 454.666 322.857 453.743 327.149 454.051C331.135 454.359 329.295 456.205 328.376 458.36C327.149 460.514 326.843 460.822 326.843 462.361C326.843 463.9 327.456 463.9 325.923 464.823C324.697 465.747 325.31 464.208 325.003 465.131C324.39 466.054 322.551 467.286 322.857 467.286C323.164 466.978 323.777 468.825 323.777 469.748C323.777 470.671 323.47 470.979 323.47 473.134C323.47 475.288 319.178 477.443 319.178 477.443C319.178 477.443 320.711 478.366 322.857 478.366C325.003 478.366 327.762 478.366 330.215 479.597C332.668 480.828 337.267 478.674 340.639 480.52C344.011 482.059 342.785 483.291 343.092 484.83C343.398 486.368 343.705 491.909 343.398 492.832C343.092 494.063 341.559 497.449 340.639 499.911C339.719 502.373 343.092 504.22 346.158 506.067C349.223 508.221 351.676 508.837 353.209 509.452C354.742 509.76 357.501 506.99 363.02 507.298C368.232 507.606 370.071 512.223 370.071 512.223C370.071 512.223 370.684 509.453 373.137 505.759C375.59 502.066 375.59 500.834 378.962 499.603C382.334 498.372 383.254 498.064 388.466 496.525C393.678 494.986 392.758 496.218 395.518 496.218C398.277 496.525 404.715 497.141 410.847 498.988C417.285 500.834 426.789 501.45 430.468 502.989C434.147 504.528 435.987 508.837 439.666 512.53C443.345 516.224 448.25 519.302 450.396 521.148C452.542 522.687 463.886 524.534 466.339 525.457C468.791 526.381 472.47 530.69 472.47 533.152C472.777 535.614 475.229 536.846 478.602 538.384C481.974 539.923 483.201 541.462 485.347 546.079C487.493 550.696 486.88 551.927 489.945 552.851C493.011 554.082 514.472 559.93 519.991 561.776C525.509 563.931 532.254 569.471 534.094 570.394C535.933 571.01 538.999 569.779 540.532 570.702C542.065 571.626 539.612 575.627 541.452 578.705C543.291 581.783 543.291 582.09 542.371 584.245C541.145 586.399 536.853 591.94 535.32 594.402C533.787 597.172 530.108 598.711 527.962 599.942C525.816 601.173 524.283 599.942 525.816 602.097C527.655 604.251 525.816 606.098 524.283 608.252C522.75 610.407 524.283 610.099 523.976 616.563C523.363 623.026 523.976 630.105 523.363 632.875C522.75 635.645 518.458 630.413 513.552 636.569C508.647 642.725 507.421 647.034 504.662 647.957C501.902 648.572 495.157 651.958 492.705 654.113C490.559 656.267 489.946 656.883 488.413 660.268C486.88 663.346 485.653 669.81 484.12 673.811C482.587 677.812 480.135 679.967 474.31 685.199C468.485 690.432 466.032 695.664 462.353 699.973C458.674 703.974 459.594 703.359 458.98 703.974C457.141 705.821 448.863 700.896 451.009 703.666C452.542 705.821 450.09 703.666 451.316 705.821C452.542 707.975 453.462 708.591 450.703 712.284C447.943 715.978 444.571 715.055 442.118 715.67C439.972 716.286 436.6 713.208 436.293 714.747C435.987 716.286 434.76 719.671 432.921 720.595C431.081 721.518 426.483 722.749 426.483 723.365C428.629 733.83 433.534 735.061 428.322 734.445C414.832 733.214 424.336 729.828 415.139 749.527C413.606 752.605 412.38 751.066 412.38 754.451C412.686 758.145 412.38 760.607 414.219 763.069C416.059 765.224 414.832 765.224 411.46 768.302C408.088 771.38 408.088 770.764 405.022 775.381C401.956 779.998 399.197 779.69 400.116 783.076C401.036 786.461 401.343 791.694 403.182 796.926C405.022 802.158 408.701 801.235 414.526 804.621C420.351 808.314 420.964 806.16 424.03 807.083C426.789 808.006 421.884 808.314 416.978 809.238C411.767 810.161 408.394 811.084 405.022 810.469C401.343 809.545 393.065 804.621 389.999 802.774C387.24 800.619 382.334 796.926 380.802 793.233C379.269 789.539 378.042 785.846 375.896 780.921C373.75 775.997 375.283 772.611 376.203 761.838C377.123 750.758 377.736 742.14 379.575 736.292C381.108 730.444 386.013 703.974 387.24 697.203C388.466 690.432 394.598 662.731 395.211 658.422C395.824 654.113 396.131 650.727 397.051 646.418C397.97 642.109 397.357 633.183 397.357 632.875C397.357 632.568 397.051 631.952 395.824 627.951C394.598 623.949 392.452 622.103 389.386 620.256C386.32 618.409 383.254 616.255 380.802 614.408C378.349 612.869 375.59 610.407 373.137 607.329C370.684 604.251 368.538 598.095 367.312 595.633C366.086 593.171 361.793 584.245 357.501 578.397C353.516 572.241 353.209 572.241 351.063 565.778C348.917 559.314 352.902 559.314 353.516 555.621C354.129 551.927 356.581 548.542 359.341 543.309C362.1 538.385 365.472 536.846 367.312 532.229C369.458 527.612 367.925 527.612 367.005 523.303C366.392 518.994 367.312 519.609 365.779 517.147C364.553 514.685 363.633 511.915 362.713 510.991C361.487 510.068 359.647 509.76 358.727 510.991C357.808 512.223 355.662 515.916 354.435 515.916C353.209 516.224 352.902 514.685 351.983 514.069C351.369 513.146 347.69 513.146 347.077 512.53C346.464 511.607 344.625 511.607 343.398 510.991C342.172 510.376 337.573 507.914 336.347 506.99C335.121 505.759 333.281 503.297 333.281 500.219C333.281 497.449 330.828 496.218 325.003 492.216C319.485 488.215 317.032 487.6 310.287 486.061C303.542 484.522 300.783 479.597 298.33 478.366C296.184 477.135 296.184 475.596 291.279 476.211C286.374 476.827 280.242 474.057 276.256 472.518C272.577 470.979 265.526 469.748 262.767 467.901C260.007 466.054 254.795 465.439 252.649 460.822C250.503 456.205 250.81 458.052 251.73 454.051C252.649 450.05 246.824 446.664 243.452 442.97C240.079 439.277 237.32 438.661 235.481 434.045C233.641 429.428 231.188 429.428 227.509 426.35C224.137 422.964 223.83 418.655 222.604 414.962C221.071 411.268 211.567 405.728 211.567 405.728C211.567 405.728 214.02 412.192 215.246 414.654C216.166 417.116 218.925 423.272 221.684 427.889C224.444 432.506 227.203 433.737 229.656 438.046C232.415 442.663 229.656 445.433 228.736 443.586C227.816 441.739 223.83 441.124 223.83 438.969C223.83 436.815 222.911 435.583 221.991 433.737C221.071 432.198 217.392 430.043 213.713 427.273C210.034 424.503 207.582 422.964 210.034 422.964C212.18 422.964 215.553 425.119 214.94 423.888C214.326 422.656 210.341 418.347 208.501 415.577C206.662 412.807 206.049 409.422 204.209 404.497C202.37 399.572 195.318 394.956 191.639 394.648C188.267 394.34 187.347 392.493 186.121 389.108C184.894 385.414 184.588 381.721 183.055 378.951C181.522 376.18 174.777 366.639 174.777 363.253C174.777 359.56 172.631 349.403 175.084 343.555C177.536 337.707 176.923 324.78 176.616 322.318C176.31 319.855 172.018 314.931 172.018 313.084C172.018 311.237 174.47 312.161 176.31 312.776C178.149 313.392 182.135 314.931 182.135 314.931C182.135 314.931 179.069 309.083 177.23 307.236C175.39 305.082 169.565 302.619 167.112 302.004C164.66 301.388 161.287 300.465 160.061 298.31C158.835 296.156 157.302 293.386 156.382 291.539C155.462 289.692 151.477 287.538 150.557 285.691C149.637 283.844 149.944 280.151 148.411 278.304C147.184 276.457 145.038 275.226 142.892 276.15C140.746 277.073 140.133 274.918 138.293 272.148C136.761 269.378 132.775 268.147 131.855 267.531C130.935 267.224 126.95 262.299 126.95 261.068C126.643 259.837 120.818 253.373 118.979 252.142C117.139 250.911 98.4375 244.755 98.131 244.755C97.5178 244.755 92.3059 245.679 90.7729 245.063C89.24 244.755 84.3347 240.446 81.882 239.523C79.4293 238.599 77.5898 240.446 76.3635 243.216C75.1372 245.986 69.3121 250.911 65.9396 253.065C62.5672 255.22 60.1145 255.528 60.4211 254.297C60.7277 253.065 60.4211 251.527 61.6475 248.756C62.5672 245.986 63.1804 245.371 66.5528 243.524C69.9252 241.985 69.9252 241.677 68.3923 241.985C67.166 241.985 66.2462 241.677 68.6989 240.138C71.4581 238.599 72.3779 238.292 72.3779 237.06C72.3779 235.829 66.5528 238.907 63.1804 241.677C59.5014 244.447 57.3553 246.602 54.2894 251.834C51.2236 257.067 54.596 255.22 52.1433 258.298C51.8368 261.684 42.9458 268.455 40.1866 270.917C37.4273 273.379 26.6969 279.227 22.0981 280.459C17.8059 281.69 15.9664 282.305 13.8203 284.152C11.6742 285.999 6.15572 286.614 7.99523 285.383C9.83473 284.152 13.2072 281.382 15.3532 280.151C17.4993 278.92 23.631 276.457 25.4705 275.534C27.31 274.918 32.2154 271.84 34.668 269.07C37.1207 266.3 38.9602 262.915 40.4931 260.452C42.0261 257.682 42.6392 256.451 38.9602 257.682C35.5878 258.913 31.9088 258.298 30.0693 257.682C28.2298 257.067 23.631 259.837 21.7915 258.606C20.2586 257.374 21.7915 254.912 20.8718 253.681C19.6454 252.45 15.9664 253.373 13.8203 252.758C11.3677 252.45 7.99523 250.295 7.99523 246.91C7.99523 243.524 5.54256 240.754 6.76889 237.984C7.99523 235.522 10.1413 234.598 12.2874 233.367C14.4335 231.828 20.2586 229.981 21.4849 229.981C22.7113 229.981 24.2442 228.75 25.4705 227.519C26.3903 226.288 23.0179 222.287 23.0179 222.287C23.0179 222.287 23.631 221.979 25.1639 221.056C26.6969 220.132 25.4705 218.285 23.0179 218.593C20.5652 218.901 15.0467 221.363 11.6742 222.287C8.30181 223.21 3.70305 222.594 4.00963 221.056C4.00963 219.517 4.92939 218.593 3.70305 217.67C3.08988 216.747 2.17013 215.515 3.39647 214.9C4.6228 214.284 11.9808 210.283 11.9808 210.283C11.9808 210.283 14.7401 213.053 17.4993 213.669C20.2586 213.976 26.3903 208.744 26.3903 208.744C22.7113 206.282 23.3244 205.666 23.3244 205.666C23.3244 205.666 17.1928 205.666 15.6598 204.743C14.1269 203.819 13.8203 201.973 13.5137 200.434C13.2072 198.895 7.07548 197.664 8.6084 195.201C10.1413 192.739 13.5137 191.816 15.3532 189.046C17.4993 186.583 19.0323 181.659 25.1639 178.889C30.989 176.119 38.0405 173.656 41.1063 171.502C44.1722 169.347 45.7051 171.502 46.9314 171.81C48.1577 172.117 55.5158 171.502 58.275 171.502C61.0343 171.502 61.6474 174.887 62.5672 175.503C63.487 176.426 88.6269 177.042 88.6269 177.042C88.6269 177.042 110.088 177.35 114.38 178.581C118.672 179.812 126.337 183.198 126.337 183.198C131.549 182.274 130.935 176.426 134.001 176.426Z" fill="url(#paint0_radial)"/>
<path d="M421.271 46.8476C421.271 46.8476 419.125 55.7735 410.54 58.2358C401.956 60.6981 386.014 67.4694 385.4 68.085C384.787 68.3927 386.32 73.3173 388.466 75.7796C390.612 78.2419 392.758 79.7809 394.598 82.2432C396.437 84.7055 399.81 84.3977 402.569 87.1678C405.328 89.6301 407.168 88.7067 414.219 89.0145C421.271 89.0145 419.431 89.6301 427.402 90.2457C435.374 90.5534 443.651 91.4768 446.411 93.9391C449.17 96.4014 453.155 105.943 455.608 111.791C458.061 117.639 462.66 127.18 462.66 128.103C462.66 129.027 459.9 136.106 459.9 137.029C459.9 138.26 461.433 140.107 462.66 141.646C463.886 143.185 463.273 144.416 462.966 145.955C462.66 147.494 464.499 151.188 464.499 151.495C464.806 151.803 468.178 147.802 470.631 147.186C472.777 146.571 478.602 151.188 478.602 154.573C478.602 161.96 480.441 159.498 468.791 168.116C467.258 169.347 465.725 177.965 466.952 182.274C468.178 186.583 470.937 191.508 473.39 197.663C475.536 203.819 482.281 212.129 484.427 216.131C486.573 220.132 487.186 225.364 492.092 226.595C496.997 227.827 501.289 229.366 504.968 230.289C508.341 231.212 510.793 232.136 512.326 229.058C513.859 225.672 517.232 213.668 519.991 204.435C522.75 195.509 519.684 192.739 526.123 190.892C532.561 188.738 542.985 184.736 545.744 183.505C548.503 182.274 547.89 173.348 554.022 170.578C560.153 167.808 561.073 167.808 566.898 165.961C573.03 164.115 581.308 160.113 587.133 156.112C593.264 151.803 594.797 153.958 596.943 150.264C599.09 146.263 594.797 140.723 594.184 134.875C593.571 129.027 596.024 128.719 597.25 123.487C598.476 118.254 599.09 114.869 603.688 111.175C608.287 107.482 610.74 105.635 610.127 102.249C609.207 98.8637 606.754 93.9391 606.754 90.2457C606.754 86.5522 607.674 88.7067 605.834 83.4743C603.995 78.2419 603.995 77.6264 605.834 73.0096C607.674 68.085 612.273 69.3161 611.966 67.1616C611.66 65.0071 604.301 61.9292 604.301 55.7735C604.301 49.9255 605.528 48.0788 606.754 46.5398C607.98 45.0009 620.244 35.4595 620.857 34.5361C621.777 33.6128 620.55 31.1505 626.682 28.3804C632.507 25.6103 634.653 23.4558 637.106 22.5324C639.252 21.6091 642.931 21.6091 635.88 19.7623C628.828 17.6078 627.295 16.9922 623.003 17.3C618.404 17.9156 616.871 20.3779 608.9 21.3013C600.929 22.2246 591.425 25.9181 591.425 25.9181C591.425 25.9181 594.184 23.4558 591.732 20.9935C589.279 18.5312 597.863 10.8365 599.396 9.91314C600.929 8.98978 588.053 5.9119 581.614 4.68075C575.176 3.4496 561.993 -0.551632 554.635 0.0639427C547.277 0.679518 536.24 0.37173 532.561 1.60288C528.882 2.83403 529.188 7.75863 525.203 7.75863C520.911 8.06642 513.246 5.29633 507.421 6.21969C501.289 7.14305 491.785 11.1443 490.865 11.4521C489.639 11.7599 494.544 14.53 497.61 15.1455C500.676 15.7611 504.662 22.2246 504.662 22.2246C504.662 22.2246 496.384 19.4545 487.8 16.9922C479.215 14.53 469.404 16.9923 466.032 17.9156C462.66 18.839 458.061 20.6857 451.009 21.3013C443.958 21.6091 436.293 27.457 432.308 29.9193C428.322 32.6894 416.059 39.7685 412.993 41.3075C409.927 42.8464 411.153 43.7698 414.526 44.6931C417.898 46.2321 421.271 46.8476 421.271 46.8476Z" fill="url(#paint1_radial)"/>
<path d="M244.372 139.184C245.292 143.185 245.292 149.033 243.146 146.571C241 144.109 239.16 138.876 235.481 141.031C231.802 143.185 228.123 142.57 228.736 141.954C229.349 141.647 228.736 139.184 226.897 138.569C225.057 137.953 223.831 138.876 221.991 140.108C220.152 141.339 214.02 142.57 216.473 140.723C218.925 138.876 218.006 137.645 217.393 135.491C216.473 133.336 210.341 137.03 206.969 139.492C203.596 141.954 201.757 145.648 199.611 148.11C197.465 150.572 198.998 152.111 202.063 153.035C205.129 153.958 210.035 154.574 205.742 156.113C201.757 157.651 198.691 158.575 200.53 159.806C202.677 161.037 206.049 161.345 209.728 160.729C213.407 160.422 216.473 159.19 221.991 160.729C227.816 162.268 231.189 162.268 231.189 162.268C231.189 162.268 229.043 163.499 225.364 164.423C221.685 165.038 214.633 164.423 210.954 165.038C207.275 165.654 201.757 166.577 203.29 168.116C204.823 169.347 205.742 171.502 210.648 173.041C215.553 174.58 216.473 173.041 219.539 173.964C222.604 174.58 220.765 177.965 221.685 178.581C222.605 179.197 228.123 178.273 233.642 177.042C239.16 176.119 237.014 175.195 241.613 173.964C245.905 172.733 246.211 169.347 248.664 168.732C251.117 168.116 249.277 170.579 252.343 171.194C255.409 171.81 253.569 172.117 256.942 172.733C260.314 173.349 259.701 174.58 262.767 174.272C265.833 173.964 269.818 171.81 269.205 171.502C268.592 171.194 268.286 170.271 268.592 168.732C268.899 167.193 265.526 169.04 263.993 169.655C262.767 170.271 262.767 167.501 265.526 166.27C268.286 165.038 270.738 166.27 272.271 166.27C273.804 166.27 272.578 161.653 269.512 161.037C266.753 160.422 265.22 158.575 260.927 156.113C256.635 153.65 258.781 152.727 257.555 149.649C256.329 146.571 253.569 137.338 251.117 135.491C248.664 133.952 246.211 134.26 243.759 132.721C243.759 132.721 243.146 135.183 244.372 139.184Z" fill="url(#paint2_radial)"/>
<path d="M178.151 132.72C179.07 135.798 179.377 133.951 177.231 137.029C175.085 140.415 176.311 141.646 174.778 144.108C173.245 146.571 169.566 149.956 170.793 151.495C172.019 153.034 175.698 153.958 177.537 155.497C179.07 156.728 180.603 159.498 183.669 158.267C186.428 157.343 187.348 156.728 189.494 155.497C191.64 154.573 193.173 153.342 193.173 150.572C193.173 148.11 192.867 146.571 193.786 146.878C194.706 147.186 195.932 148.417 196.546 146.571C197.159 144.724 198.385 142.569 199.611 141.338C200.838 140.107 204.823 138.568 206.663 137.029C208.502 135.49 211.568 133.644 212.488 132.412C213.408 131.181 210.955 129.95 209.422 129.335C207.889 128.719 206.05 126.257 202.677 126.257C199.305 126.257 197.159 129.027 197.465 127.796C197.772 126.565 195.013 125.949 193.786 125.333C192.253 124.718 191.027 124.102 186.428 124.41C181.83 125.026 179.99 125.333 176.311 126.257C172.939 127.796 176.924 129.95 178.151 132.72Z" fill="url(#paint3_radial)"/>
<path d="M281.777 168.423C281.164 169.039 279.325 169.655 278.098 171.193C276.872 172.732 280.858 171.809 282.084 172.425C283.31 172.732 284.23 174.271 285.456 174.579C286.376 174.887 292.201 175.195 294.347 173.964C296.8 172.732 296.8 172.425 296.8 171.809C296.494 171.193 291.895 166.884 288.829 165.038C285.456 163.191 285.457 163.191 284.537 163.499C283.617 164.422 282.391 167.808 281.777 168.423Z" fill="url(#paint4_radial)"/>
<path d="M266.753 133.643C264.607 134.875 263.074 136.106 266.753 137.952C270.432 139.799 271.658 141.338 274.111 142.877C276.564 144.416 277.483 149.033 282.695 146.878C287.907 144.724 290.053 142.569 290.666 140.415C291.28 138.26 290.053 137.952 288.52 135.798C287.294 133.951 286.987 133.028 284.228 133.336C281.469 133.643 280.856 133.643 280.856 133.643C280.856 133.643 282.695 131.489 285.454 129.95C288.214 128.411 286.068 127.488 287.294 126.257C288.52 125.025 283.922 124.102 281.775 124.718C279.629 125.333 279.629 124.718 276.257 124.41C272.885 124.41 267.366 127.488 267.673 128.411C267.979 129.642 270.432 129.027 272.885 130.566C275.337 131.797 275.95 131.797 273.498 135.49C271.045 139.184 269.819 134.567 268.899 133.951C268.286 133.643 268.899 132.72 266.753 133.643Z" fill="url(#paint5_radial)"/>
<path d="M251.426 126.872C247.747 127.18 246.52 129.642 248.053 129.95C249.28 130.258 250.199 129.642 252.346 131.797C254.492 134.259 256.331 135.49 257.251 131.489C258.171 127.795 256.944 126.256 251.426 126.872Z" fill="url(#paint6_radial)"/>
<path d="M193.786 97.9401C189.801 101.018 188.881 103.788 185.815 105.635C182.749 107.789 183.363 109.328 184.589 110.559C185.509 111.791 188.881 110.559 190.107 109.636C191.64 109.02 192.867 107.174 193.48 108.097C194.4 109.328 198.079 104.404 199.611 102.557C201.144 101.018 203.29 99.1713 203.597 99.1713C203.904 99.1713 202.371 101.018 202.984 102.557C203.597 104.096 206.356 104.096 209.116 101.634C211.568 98.8635 209.422 96.4012 211.262 94.5545C213.101 92.3999 214.941 92.7077 210.955 90.861C206.969 89.0143 204.517 91.1688 203.904 92.0921C203.29 93.3233 201.758 91.7844 193.786 97.9401Z" fill="url(#paint7_radial)"/>
<path d="M218.311 103.172C216.165 103.172 214.939 103.48 211.26 105.327C207.581 106.866 206.048 111.175 205.128 113.637C204.209 116.1 205.435 116.1 208.807 117.331C212.18 118.562 217.085 117.023 218.005 113.637C219.231 110.559 220.458 114.253 219.844 116.1C219.231 117.638 222.297 116.1 223.523 115.484C225.056 114.868 229.349 114.561 229.655 114.561C229.962 114.561 226.283 117.331 222.297 118.87C218.618 120.101 215.552 120.716 214.632 121.024C213.713 121.024 215.552 122.871 219.844 123.486C224.137 124.41 226.896 120.716 233.028 118.562C239.466 116.1 239.159 115.792 240.999 116.407C243.145 117.023 245.291 115.484 247.744 114.868C250.196 114.253 251.423 115.176 252.342 111.483C253.569 107.789 255.408 104.096 251.729 103.788C248.05 103.48 248.05 103.48 247.437 107.789C246.824 111.79 246.517 109.328 246.517 109.328C246.517 109.328 244.065 105.635 242.838 103.788C241.305 101.941 240.386 99.1712 238.853 97.3245C237.32 95.7856 236.4 97.9401 233.947 100.71C231.495 103.48 233.334 104.404 235.787 105.635C238.239 106.866 240.079 109.944 238.853 110.559C237.626 111.483 236.4 110.559 231.801 110.867C227.202 111.483 227.509 109.328 226.283 108.713C225.056 108.097 228.429 106.866 223.523 104.711C219.538 102.557 219.844 102.865 218.311 103.172Z" fill="url(#paint8_radial)"/>
<path d="M203.598 106.866C204.211 105.943 197.466 110.868 196.546 112.407C195.627 113.946 197.466 113.638 199.612 113.638C201.452 113.33 201.758 109.944 203.598 106.866Z" fill="url(#paint9_radial)"/>
<path d="M216.167 97.0168C214.634 97.6323 214.634 98.2479 217.087 98.5557C219.846 98.8635 221.379 97.6323 220.766 96.4012C220.153 95.4778 217.393 96.4012 216.167 97.0168Z" fill="url(#paint10_radial)"/>
<path d="M229.655 82.859C227.816 83.1667 222.604 85.0135 222.297 85.9368C221.991 86.8602 222.297 88.7069 223.217 90.2458C224.137 91.7848 224.443 92.0926 228.736 90.8614C233.334 89.6303 236.4 87.4758 234.867 86.8602C233.334 86.5524 232.415 85.629 231.188 85.629C229.962 85.3212 232.415 84.7057 235.174 83.7823C238.24 82.859 239.159 81.32 229.655 82.859Z" fill="url(#paint11_radial)"/>
<path d="M214.634 85.3211C213.408 85.9366 212.795 85.9366 215.554 86.86C218.313 87.7834 221.073 87.7834 220.766 86.86C220.153 86.2444 218.007 83.4743 214.634 85.3211Z" fill="url(#paint12_radial)"/>
<path d="M224.75 77.9344C222.297 78.8578 221.684 80.7045 221.071 81.3201C220.458 81.9357 223.83 80.7045 225.363 80.3967C226.896 80.0889 227.203 81.0123 228.736 79.4734C230.269 78.2422 233.334 79.4734 236.094 78.8578C238.853 78.2422 239.159 76.3955 238.546 74.8565C238.24 73.6254 232.108 75.1643 224.75 77.9344Z" fill="url(#paint13_radial)"/>
<path d="M251.733 84.7057C251.12 85.0135 251.12 86.2446 252.04 87.4758C252.653 88.7069 252.96 88.3991 254.186 89.0147C255.412 89.6303 256.945 90.5536 257.252 90.8614C257.558 91.1692 257.865 91.1692 258.478 89.9381C259.091 88.7069 258.172 88.7069 256.639 87.168C255.106 85.629 253.879 83.7823 251.733 84.7057Z" fill="url(#paint14_radial)"/>
<path d="M260.929 96.4014C258.783 95.7858 257.557 97.0169 256.944 97.3247C256.33 97.6325 257.25 98.5559 257.863 100.095C258.476 101.634 257.863 102.249 260.929 102.557C263.995 102.865 264.915 102.249 265.221 100.403C265.528 98.2481 263.075 97.0169 260.929 96.4014Z" fill="url(#paint15_radial)"/>
<path d="M272.886 99.7875C271.046 98.5564 270.126 97.3252 268.287 97.9408C266.447 98.8642 267.98 99.7875 267.98 100.095C267.98 100.711 270.433 100.095 270.433 101.326C270.433 102.558 271.046 103.173 268.287 103.173C265.528 103.173 264.608 103.173 263.688 104.097C262.768 105.02 265.834 104.097 266.754 105.328C267.674 106.559 269.207 106.867 271.966 106.251C274.725 105.943 278.404 105.328 278.404 105.328C278.404 105.328 276.565 107.174 275.645 108.406C274.725 109.637 274.419 111.483 275.951 112.407C277.484 113.33 277.484 111.483 281.47 111.483C285.456 111.483 286.375 109.329 286.375 109.329C286.375 109.329 285.149 108.713 285.149 106.867C285.149 105.02 285.149 104.404 285.149 104.404C285.149 104.404 286.682 105.635 286.989 105.943C286.989 105.943 286.682 104.712 286.069 102.558C285.456 100.403 286.069 100.403 285.456 97.633C285.149 94.8629 285.149 94.2474 282.083 94.5551C279.324 94.5551 277.178 95.7863 274.725 95.7863C272.272 95.7863 271.353 96.0941 273.192 97.0174C275.032 97.9408 275.338 98.8642 275.951 100.095C276.871 101.019 276.565 103.481 276.565 103.481C276.871 103.173 272.886 99.7875 272.886 99.7875Z" fill="url(#paint16_radial)"/>
<path d="M258.169 110.56C256.943 111.175 256.33 112.406 256.33 113.638C256.33 114.561 257.863 113.945 260.622 113.022C263.381 112.099 262.155 109.328 258.169 110.56Z" fill="url(#paint17_radial)"/>
<path d="M295.879 105.327C293.733 106.559 291.893 108.097 290.667 109.636C289.441 111.175 290.36 111.175 293.733 113.022C297.105 114.561 300.478 115.177 302.01 113.33C303.85 111.483 301.397 102.25 295.879 105.327Z" fill="url(#paint18_radial)"/>
<path d="M311.208 92.4001C306.916 92.7078 308.142 93.3234 303.237 91.7845C298.331 90.2455 292.2 89.9378 290.36 89.9378C288.827 89.9378 289.44 90.8611 291.28 93.6312C293.119 96.4013 293.426 97.6324 297.105 96.7091C300.784 95.7857 303.543 95.1701 306.302 98.8636C309.062 102.557 310.288 103.788 308.142 105.327C305.996 106.866 306.916 109.021 308.142 111.791C309.368 114.561 312.128 114.561 316.113 114.561C320.099 114.561 345.545 114.253 349.531 113.33C353.516 112.714 356.889 109.328 359.035 107.789C361.181 106.25 362.407 103.788 359.342 102.249C356.582 100.403 352.29 98.8636 349.224 98.8636C345.852 98.8636 343.093 100.403 338.494 101.018C333.588 101.634 334.815 103.788 330.216 104.096C325.924 104.096 328.07 106.25 322.551 103.788C317.033 101.634 313.047 98.8636 315.807 98.248C318.259 97.9402 320.405 97.6324 319.179 96.4013C317.646 95.4779 315.193 92.0923 311.208 92.4001Z" fill="url(#paint19_radial)"/>
<path d="M260.621 71.7787C263.381 72.702 263.994 73.3176 260.928 74.241C257.862 75.1643 255.716 77.0111 258.782 76.7033C261.848 76.3955 264.3 77.0111 267.979 77.6266C271.658 78.2422 271.352 77.9344 273.191 80.0889C274.724 82.2434 276.564 82.2435 279.323 81.6279C281.776 81.0123 282.389 80.7045 280.549 78.8578C279.016 77.0111 277.177 73.6254 274.724 72.3943C272.578 71.1631 270.432 69.0086 268.286 69.3164C266.14 69.6242 265.527 69.6242 263.381 66.8541C261.541 64.084 260.008 65.3151 256.942 66.2385C254.183 66.8541 253.263 69.0086 252.037 69.932C249.891 71.4709 257.862 70.8553 260.621 71.7787Z" fill="url(#paint20_radial)"/>
<path d="M294.958 44.3861C291.892 48.3873 289.44 51.4652 292.812 52.0808C296.491 52.3886 298.024 51.773 298.024 53.0041C298.33 54.2353 297.411 54.8509 292.199 54.8509C286.987 54.8509 288.52 56.082 291.586 59.4677C294.651 62.8533 294.958 61.6222 299.25 61.6222C303.849 61.6222 305.382 59.7755 309.061 60.6988C312.74 61.6222 313.966 62.5455 310.594 63.4689C307.221 64.3923 299.25 66.239 301.09 68.0857C302.929 69.6246 308.448 73.9337 310.9 74.2415C313.353 74.5492 313.966 72.7025 319.485 73.3181C325.003 73.9337 323.47 74.5492 324.084 73.0103C324.697 71.4714 327.763 67.7779 328.376 66.239C328.989 64.7 330.522 64.0845 333.588 63.1611C336.653 62.5455 337.573 61.6222 334.814 60.391C332.055 59.4677 328.682 58.8521 328.989 58.2365C329.295 57.3132 331.135 55.1586 329.909 53.9275C328.682 52.6963 326.843 52.6963 325.31 52.0808C323.777 51.4652 321.937 48.6951 320.098 47.464C318.258 46.2328 316.419 46.2328 313.966 44.3861C311.514 42.5394 307.835 37.9225 302.929 38.2303C299.557 38.5381 298.024 40.3848 294.958 44.3861Z" fill="url(#paint21_radial)"/>
<path d="M288.827 77.0108C287.601 77.6264 284.535 77.6264 286.988 79.4731C289.134 81.3198 288.521 81.3198 291.28 80.3965C294.039 79.4731 298.025 76.703 298.638 75.7796C298.944 74.8563 295.879 73.6251 293.733 72.7018C291.586 72.0862 290.053 70.2395 285.455 69.0083C279.016 67.4694 290.054 76.3952 288.827 77.0108Z" fill="url(#paint22_radial)"/>
<path d="M435.068 18.8388C430.163 17.6077 412.381 13.9142 406.556 15.4531C400.73 16.6843 401.037 12.3753 393.066 13.6064C385.095 14.5298 372.831 13.9142 369.152 14.5298C365.473 15.1454 370.992 16.6843 373.138 18.2232C375.284 19.4544 363.327 16.6843 354.13 19.1466C344.932 21.6089 339.107 23.1478 348.918 26.8413C358.728 30.5347 359.955 31.4581 359.955 31.4581C359.955 31.4581 347.385 29.3036 342.173 27.1491C336.961 24.9946 339.72 25.3023 329.91 28.0724C320.099 30.8425 310.595 32.3815 310.901 35.4593C311.514 38.5372 318.872 42.5384 323.778 43.4618C328.683 44.3852 338.8 41.9229 339.72 41.6151C340.64 41.3073 335.735 45.6163 335.735 45.6163C335.735 45.6163 340.947 44.6929 346.465 43.154C352.29 41.6151 356.582 40.0761 362.101 38.2294C367.619 36.3827 368.539 35.7671 368.539 35.7671C368.539 35.7671 359.035 43.154 352.597 45.6163C346.158 48.0786 337.574 49.9253 333.589 49.9253C329.603 49.9253 330.216 52.6954 334.202 54.5421C338.187 56.6967 341.253 61.0057 343.399 62.5446C345.545 64.0835 345.852 66.5459 345.852 66.5459C345.852 66.5459 339.72 61.6213 332.669 66.5459C325.924 71.4705 326.844 73.9328 328.377 74.5483C330.216 75.1639 336.041 75.7795 337.268 77.934C338.494 80.0885 346.465 76.0873 346.465 76.0873C346.465 76.0873 342.479 81.0119 338.8 81.0119C335.121 81.0119 335.121 77.6262 329.603 78.2418C324.084 78.8573 324.391 80.0885 326.844 82.243C329.296 84.0897 331.136 84.7053 327.15 86.8598C322.858 88.7066 321.019 89.3221 321.019 91.7844C320.712 94.2467 326.537 94.2467 329.91 94.2467C333.282 94.2467 336.654 93.9389 343.093 93.9389C349.531 93.9389 348.611 91.7844 351.064 91.7844C353.516 91.7844 355.969 92.4 354.743 94.8623C353.823 97.3246 355.663 95.7856 362.714 93.3233C369.765 90.8611 366.393 86.8598 366.086 85.6287C365.473 84.3975 363.021 83.7819 361.488 83.1664C359.955 82.5508 366.393 75.7795 365.167 73.625C364.247 71.4704 372.831 73.3172 376.817 68.0848C380.802 62.8524 379.27 58.8512 376.51 58.2356C373.751 57.3122 381.722 57.9278 384.175 56.3889C386.628 54.8499 392.453 53.0032 394.599 50.2331C396.745 47.463 397.665 46.2319 392.146 46.8475C386.628 47.463 399.811 44.3852 406.249 40.3839C412.687 36.0749 420.045 31.1503 421.578 30.2269C423.111 28.9958 424.644 29.6114 416.979 30.2269C409.621 30.5347 400.424 29.6114 405.636 28.9958C410.541 28.3802 425.257 26.5335 428.936 23.7634C433.228 19.7622 435.068 18.8388 435.068 18.8388Z" fill="url(#paint23_radial)"/>
<path d="M345.852 122.255C337.881 121.64 326.231 119.485 323.778 126.564C321.326 133.336 317.647 148.725 317.34 151.495C317.034 154.265 326.844 158.574 333.896 158.882C340.64 159.19 351.984 159.498 349.531 157.959C347.385 156.42 349.225 155.496 355.663 155.804C362.101 156.112 362.715 154.573 362.715 153.034C362.715 151.803 363.941 154.573 368.233 157.035C372.832 159.498 376.511 166.269 380.496 169.962C384.482 173.964 393.373 179.196 391.533 181.966C389.694 185.044 393.373 195.509 379.883 197.663C366.087 200.126 365.474 198.279 365.474 201.664C365.78 204.742 366.394 206.281 371.605 206.281C377.124 206.281 384.482 201.664 386.935 205.05C389.387 208.436 393.066 209.667 395.212 210.283C397.359 210.898 392.453 212.437 391.227 212.745C390 213.053 393.986 213.668 401.651 217.362C409.315 221.055 418.819 221.671 414.221 218.901C409.622 216.13 407.476 211.206 405.33 209.667C403.184 208.128 405.023 209.359 408.702 210.283C412.381 211.206 415.754 214.284 417.287 215.515C418.819 216.746 419.739 215.207 420.659 209.975C421.885 204.742 420.046 204.742 413.914 200.741C407.782 196.432 405.943 193.354 405.023 190.276C404.41 187.198 408.089 186.583 409.928 184.736C411.461 182.582 416.06 188.43 419.126 191.815C422.192 195.201 424.645 201.049 427.097 196.74C429.55 192.431 431.696 182.582 431.696 180.427C431.696 178.273 429.243 180.427 419.126 175.503C409.009 170.578 403.797 168.423 402.57 168.423C401.651 168.423 405.33 166.577 409.622 164.114C414.221 161.96 416.06 162.268 406.556 153.034C397.052 143.8 394.293 141.954 388.161 141.338C382.029 140.723 380.19 134.259 375.591 132.105C370.992 129.95 360.875 134.875 357.809 135.49C354.743 136.106 355.663 137.337 351.984 131.797C348.918 126.257 345.852 122.255 345.852 122.255Z" fill="url(#paint24_radial)"/>
<path d="M353.21 122.256C349.224 122.872 355.663 129.951 360.568 130.259C365.78 130.566 370.072 128.104 370.992 127.796C372.218 127.488 359.342 121.333 353.21 122.256Z" fill="url(#paint25_radial)"/>
<path d="M335.122 196.124C334.508 197.663 332.975 202.28 332.669 205.358C332.362 208.436 332.056 208.744 331.443 210.59C330.829 212.437 333.282 210.283 335.122 213.053C336.654 215.823 336.041 216.746 339.107 213.36C342.173 209.975 345.545 209.051 349.531 210.283C353.823 211.514 356.889 212.129 355.663 209.667C354.13 207.205 352.29 207.205 349.531 203.819C346.772 200.433 344.626 199.51 340.947 197.971C336.961 196.74 336.654 192.739 335.122 196.124Z" fill="url(#paint26_radial)"/>
<path d="M365.167 457.128C363.941 454.666 362.101 450.357 354.437 448.818C346.772 447.279 344.013 450.357 341.254 451.28C338.494 452.204 344.013 452.819 347.692 451.28C351.371 449.741 354.13 450.972 354.743 451.588C355.357 452.204 353.517 452.511 352.904 451.896C352.291 451.28 352.291 453.742 356.276 455.281C360.568 456.82 361.488 457.436 361.795 459.283C362.101 461.129 362.101 462.053 363.021 463.592C363.941 465.131 364.248 465.746 362.715 466.362C360.875 466.977 361.488 466.977 362.715 467.593C363.941 468.516 366.7 469.747 370.379 470.055C374.058 470.363 375.285 470.979 372.832 467.593C370.073 464.515 365.78 458.051 365.167 457.128Z" fill="url(#paint27_radial)"/>
<path d="M376.816 473.441C378.962 475.595 378.349 477.75 378.042 478.981C378.042 480.212 375.589 479.289 371.604 478.058C367.618 477.134 368.231 477.442 371.604 479.289C374.976 481.136 377.429 480.828 377.122 483.29C377.122 485.752 380.188 483.598 381.721 482.059C383.254 480.52 382.947 481.751 389.386 482.982C395.517 483.906 396.744 485.137 395.824 482.367C394.904 479.597 398.583 479.904 393.065 477.134C387.853 474.672 374.67 471.286 376.816 473.441Z" fill="url(#paint28_radial)"/>
<path d="M359.342 474.98C356.889 472.517 354.13 471.902 354.13 474.364C354.13 476.519 355.05 476.519 357.196 477.134C359.035 477.442 360.568 476.826 359.342 474.98Z" fill="url(#paint29_radial)"/>
<path d="M404.102 486.368C401.649 485.444 401.036 487.291 402.875 489.138C404.408 490.677 407.168 490.061 409.62 490.061C412.073 489.753 408.394 487.907 404.102 486.368Z" fill="url(#paint30_radial)"/>
<path d="M374.979 174.58C371.607 176.118 369.767 177.042 372.527 180.735C375.592 184.737 377.125 186.891 378.352 184.121C379.578 181.351 380.804 172.117 374.979 174.58Z" fill="url(#paint31_radial)"/>
<path d="M348.304 215.823C343.399 216.747 341.559 216.747 342.479 219.517C343.399 222.287 344.625 221.979 347.998 220.132C351.37 218.594 353.823 214.9 348.304 215.823Z" fill="url(#paint32_radial)"/>
<path d="M358.728 220.132C357.808 220.439 357.501 222.286 358.728 224.133C359.954 225.98 362.1 223.517 363.02 221.363C363.939 219.208 361.793 219.208 358.728 220.132Z" fill="url(#paint33_radial)"/>
<path d="M303.542 82.5507C298.637 82.8585 291.585 84.3974 295.571 84.3974C299.557 84.3974 302.929 85.3208 309.367 85.013C315.806 84.7052 316.419 84.0896 316.725 81.0118C316.725 77.9339 312.433 82.2429 303.542 82.5507Z" fill="url(#paint34_radial)"/>
<path d="M273.805 56.3892C268.9 57.9282 270.126 58.8515 275.951 61.3138C281.776 63.7761 281.776 62.545 281.163 57.9282C280.244 53.3113 276.565 55.4659 273.805 56.3892Z" fill="url(#paint35_radial)"/>
<path d="M614.421 181.043C608.289 182.582 606.45 181.659 605.223 184.736C603.997 187.814 601.851 186.275 600.318 186.583C599.092 186.891 596.945 195.509 596.026 194.278C595.106 193.047 594.799 192.431 593.266 189.353C591.734 186.275 593.88 186.891 591.12 183.813C588.361 180.735 583.149 181.043 582.843 182.274C582.536 183.505 586.522 184.736 584.989 185.968C583.762 187.507 580.39 189.045 579.164 190.277C577.937 191.2 581.616 190.892 583.762 190.277C585.908 189.661 587.441 192.123 588.361 193.662C589.281 195.201 587.441 196.74 586.215 197.663C585.295 198.587 589.587 198.279 591.12 198.587C592.96 198.895 593.573 200.434 592.653 202.28C591.427 204.127 597.865 202.588 601.238 202.28C604.61 201.973 605.53 204.743 610.742 202.896C615.954 201.357 618.406 201.357 623.312 197.971C627.91 194.586 627.604 195.201 630.976 193.047C634.042 190.892 633.429 189.969 633.429 187.507C633.429 185.044 635.575 188.122 634.655 184.429C634.042 180.735 630.057 181.659 627.297 181.351C624.538 181.043 624.538 178.888 623.312 178.273C622.085 177.657 620.552 179.196 614.421 181.043Z" fill="url(#paint36_radial)"/>
<path d="M458.06 288.461C455.608 290.307 452.848 293.385 449.476 299.541C446.104 305.697 446.41 305.081 443.038 308.467C439.665 311.852 441.505 311.237 451.622 313.084C462.046 315.238 461.126 316.777 463.579 315.854C466.031 315.238 466.338 317.085 466.338 319.239C466.338 321.394 468.484 320.163 469.711 316.777C470.63 313.391 468.484 307.236 466.338 303.85C464.192 300.464 463.579 300.464 460.206 301.388C456.834 302.311 458.06 300.464 456.834 298.002C455.608 295.232 453.768 297.386 456.527 293.385C459.593 289.692 460.513 286.614 458.06 288.461Z" fill="url(#paint37_radial)"/>
<path d="M139.826 281.382C139.826 284.767 143.199 290.307 145.958 292.154C148.717 294.001 148.104 293.077 146.878 289.076C145.652 285.075 146.571 285.075 145.958 282.613C145.652 279.843 139.826 280.15 139.826 281.382Z" fill="url(#paint38_radial)"/>
<path d="M157.302 299.541C157.915 300.157 160.061 303.234 163.74 305.697C167.419 308.159 168.339 308.467 172.324 309.698C176.003 310.929 177.843 309.39 175.39 307.236C172.938 305.081 175.084 305.081 170.485 304.158C165.886 303.234 164.966 303.542 162.82 302.003C160.674 300.464 155.769 298.002 157.302 299.541Z" fill="url(#paint39_radial)"/>
<path d="M60.1163 262.299C57.3571 261.683 56.1307 261.375 53.9847 263.222C52.1451 264.761 51.8386 265.992 52.7583 267.839C53.9847 269.686 53.0649 268.762 55.8242 266.915C58.2768 265.069 57.0505 265.069 60.4229 264.145C63.4888 263.222 62.8756 262.299 62.8756 262.299C62.8756 262.299 61.9558 262.914 60.1163 262.299Z" fill="url(#paint40_radial)"/>
<path d="M59.1946 258.605C57.3551 259.836 56.7419 260.76 58.888 260.144C61.0341 259.836 60.7275 258.605 62.2604 258.605C63.4867 258.913 64.0999 258.297 64.0999 258.297C64.0999 258.297 61.3407 257.374 59.1946 258.605Z" fill="url(#paint41_radial)"/>
<path d="M4.0103 249.679C1.25104 250.91 -1.20164 249.371 0.63787 250.295C2.17079 251.218 4.31688 252.142 6.15638 252.142C7.99589 251.834 8.91564 251.834 8.30247 251.218C7.68931 250.295 7.38272 250.295 7.38272 249.371C7.38272 247.833 6.76955 248.448 4.0103 249.679Z" fill="url(#paint42_radial)"/>
<path d="M432.921 303.542C429.242 301.695 425.87 300.464 423.724 300.464C421.271 300.464 424.337 302.926 428.016 305.081C431.388 306.62 435.067 304.465 432.921 303.542Z" fill="url(#paint43_radial)"/>
<path d="M424.337 318.316C424.644 315.238 422.498 321.702 424.95 323.241C427.71 324.779 428.936 325.087 430.469 323.241C432.002 321.394 430.775 322.625 428.323 322.317C426.483 321.702 424.337 320.778 424.337 318.316Z" fill="url(#paint44_radial)"/>
<path d="M464.806 157.035C463.579 158.882 466.645 161.344 468.791 160.729C470.937 160.113 471.551 160.729 472.777 159.805C474.003 158.882 474.003 157.343 472.777 156.112C471.244 154.573 471.857 153.958 471.551 153.65C469.098 151.803 466.032 155.189 464.806 157.035Z" fill="url(#paint45_radial)"/>
<path d="M180.377 242.6L178.844 242.293C184.362 207.513 201.531 174.887 226.671 150.572C252.117 126.257 285.228 110.56 319.873 106.558L320.179 108.097C285.535 112.099 252.731 127.796 227.897 151.803C202.757 175.811 185.895 208.128 180.377 242.6Z" fill="url(#paint46_radial)"/>
<path d="M183.443 242.908C183.136 245.063 180.99 246.294 178.844 245.986C176.698 245.678 175.472 243.524 175.778 241.369C176.085 239.215 178.231 237.984 180.377 238.291C182.523 238.907 184.056 240.754 183.443 242.908Z" fill="url(#paint47_radial)"/>
<path d="M320.486 111.483C322.632 111.175 324.165 109.328 323.858 107.174C323.552 105.019 321.712 103.48 319.566 103.788C317.42 104.096 315.887 105.943 316.194 108.097C316.5 110.252 318.34 111.791 320.486 111.483Z" fill="url(#paint48_radial)"/>
<path d="M280.628 229.674L279.095 229.058C297.184 191.816 329.375 161.037 367.085 144.417C404.795 128.104 449.249 125.642 488.799 137.645L488.186 139.184C448.943 127.18 405.101 129.335 367.698 145.648C330.601 162.268 298.717 192.739 280.628 229.674Z" fill="url(#paint49_radial)"/>
<path d="M284.001 231.212C282.775 233.367 280.322 234.29 278.176 233.059C276.03 231.828 275.11 229.366 276.337 227.211C277.563 225.057 280.016 224.133 282.162 225.364C284.308 226.596 285.228 229.058 284.001 231.212Z" fill="url(#paint50_radial)"/>
<path d="M487.267 142.877C489.413 143.493 491.866 142.262 492.479 139.799C493.092 137.337 491.866 135.183 489.413 134.567C487.267 133.951 484.814 135.183 484.201 137.645C483.588 139.799 485.121 142.262 487.267 142.877Z" fill="url(#paint51_radial)"/>
<path d="M344.706 131.49L343.173 130.566C363.407 94.2472 397.131 65.3152 435.761 51.157C474.391 36.9988 518.845 36.9988 557.475 51.157L556.862 52.6959C518.539 38.5377 474.391 38.2299 436.068 52.6959C398.358 67.1619 364.94 95.7862 344.706 131.49Z" fill="url(#paint52_radial)"/>
<path d="M348.078 133.336C346.852 135.491 344.093 136.106 342.253 134.875C340.107 133.644 339.494 130.874 340.72 129.027C341.947 126.873 344.706 126.257 346.545 127.488C348.691 128.719 349.305 131.182 348.078 133.336Z" fill="url(#paint53_radial)"/>
<path d="M555.943 56.3894C558.089 57.3127 560.541 56.0816 561.461 53.6193C562.381 51.4648 561.154 49.0025 558.702 48.0791C556.556 47.1557 554.103 48.3869 553.183 50.8492C552.57 53.3115 553.796 55.466 555.943 56.3894Z" fill="url(#paint54_radial)"/>
<path d="M274.501 315.854L273.581 315.547C281.552 292.77 298.415 272.764 319.262 260.76C340.11 248.757 365.557 244.448 389.164 249.064L388.857 249.988C365.557 245.679 340.11 249.68 319.569 261.684C298.721 273.687 282.472 293.386 274.501 315.854Z" fill="url(#paint55_radial)"/>
<path d="M276.339 316.47C275.726 317.701 274.499 318.316 272.967 318.009C271.74 317.393 271.127 316.162 271.434 314.623C272.047 313.392 273.273 312.776 274.806 313.084C276.339 313.7 276.952 315.239 276.339 316.47Z" fill="url(#paint56_radial)"/>
<path d="M388.55 252.142C389.776 252.45 391.309 251.526 391.309 249.987C391.616 248.756 390.696 247.217 389.163 247.217C387.937 246.91 386.404 247.833 386.404 249.372C386.097 250.603 387.017 251.834 388.55 252.142Z" fill="url(#paint57_radial)"/>
<path d="M257.941 402.958L257.022 402.65C264.993 379.874 281.855 359.868 302.703 347.864C323.55 335.86 348.997 331.551 372.604 336.168L372.297 337.091C348.997 332.782 323.55 336.784 303.009 348.787C282.468 360.483 266.219 380.489 257.941 402.958Z" fill="url(#paint58_radial)"/>
<path d="M260.088 403.573C259.475 404.804 258.249 405.42 256.716 405.112C255.49 404.497 254.877 403.265 255.183 401.726C255.796 400.495 257.023 399.88 258.556 400.188C259.782 400.803 260.702 402.342 260.088 403.573Z" fill="url(#paint59_radial)"/>
<path d="M371.991 339.246C373.217 339.554 374.75 338.63 374.75 337.091C374.75 335.552 374.137 334.321 372.604 334.321C371.378 334.013 369.845 334.937 369.845 336.476C369.845 337.707 370.765 338.938 371.991 339.246Z" fill="url(#paint60_radial)"/>
<path d="M257.328 272.456L257.021 271.533C278.789 261.068 304.542 258.913 327.842 265.069C351.143 271.533 371.99 286.614 385.787 306.313L384.867 306.928C371.377 287.23 350.529 272.148 327.536 265.993C304.542 260.145 278.789 262.299 257.328 272.456Z" fill="url(#paint61_radial)"/>
<path d="M258.249 274.611C257.023 275.226 255.49 274.611 254.877 273.38C254.263 272.148 254.877 270.609 256.103 269.994C257.329 269.378 258.862 269.994 259.475 271.225C260.088 272.456 259.475 273.995 258.249 274.611Z" fill="url(#paint62_radial)"/>
<path d="M383.029 308.467C383.949 309.698 385.482 310.006 386.401 309.083C387.628 308.159 387.934 306.62 387.014 305.697C386.095 304.466 384.562 304.158 383.642 305.081C382.416 305.697 382.109 307.236 383.029 308.467Z" fill="url(#paint63_radial)"/>
<path d="M90.851 201.973L90.5444 201.05C112.312 190.585 138.065 188.43 161.365 194.586C184.666 201.05 205.513 216.131 219.31 235.83L218.39 236.445C204.9 216.747 184.053 201.973 161.059 195.509C138.065 189.354 112.618 191.508 90.851 201.973Z" fill="url(#paint64_radial)"/>
<path d="M91.7734 203.819C90.547 204.435 89.0141 203.819 88.4009 202.588C87.7878 201.357 88.401 199.818 89.6273 199.202C90.8536 198.587 92.3865 199.202 92.9997 200.434C93.6129 201.665 93.3063 203.204 91.7734 203.819Z" fill="url(#paint65_radial)"/>
<path d="M216.553 237.676C217.473 238.907 219.006 239.215 219.925 238.291C221.152 237.368 221.458 235.829 220.538 234.906C219.619 233.675 218.086 233.367 217.166 234.29C215.94 234.906 215.633 236.752 216.553 237.676Z" fill="url(#paint66_radial)"/>
<path d="M201.836 351.865L201.529 350.941C223.297 340.477 249.05 338.322 272.35 344.478C295.651 350.942 316.498 366.023 330.295 385.721L329.375 386.337C315.885 366.639 295.037 351.557 272.044 345.401C249.05 339.246 223.603 341.708 201.836 351.865Z" fill="url(#paint67_radial)"/>
<path d="M202.758 353.712C201.531 354.327 199.998 353.712 199.385 352.481C198.772 351.249 199.385 349.711 200.612 349.095C201.838 348.479 203.371 349.095 203.984 350.326C204.597 351.865 203.984 353.404 202.758 353.712Z" fill="url(#paint68_radial)"/>
<path d="M327.537 387.876C328.457 389.107 329.99 389.415 330.91 388.492C332.136 387.568 332.443 386.029 331.523 385.106C330.603 383.875 329.07 383.567 328.151 384.491C326.924 385.106 326.618 386.645 327.537 387.876Z" fill="url(#paint69_radial)"/>
<path d="M273.885 449.434V448.203C303.317 445.125 334.282 453.127 358.502 470.055C382.723 486.984 401.118 513.146 408.476 541.77L407.249 542.078C399.891 513.453 381.803 487.599 357.583 470.979C333.669 454.051 303.011 446.356 273.885 449.434Z" fill="url(#paint70_radial)"/>
<path d="M274.191 451.896C272.351 451.896 271.125 450.665 270.818 449.126C270.818 447.279 272.044 446.048 273.577 445.74C275.417 445.74 276.643 446.971 276.95 448.51C277.256 450.357 275.723 451.896 274.191 451.896Z" fill="url(#paint71_radial)"/>
<path d="M404.796 542.693C405.41 544.232 406.942 545.155 408.475 544.848C410.008 544.54 410.928 542.693 410.621 541.154C410.008 539.615 408.475 538.692 406.942 539C405.103 539.308 404.183 540.846 404.796 542.693Z" fill="url(#paint72_radial)"/>
<path d="M230.963 285.691L229.43 285.075C239.854 253.989 265.607 228.442 296.266 218.285C326.924 208.128 362.794 213.053 389.774 231.828L388.854 233.059C362.488 214.9 327.231 209.667 296.879 219.824C266.527 229.981 241.387 255.22 230.963 285.691Z" fill="url(#paint73_radial)"/>
<path d="M234.334 286.614C233.721 288.769 231.268 290 228.815 289.384C226.669 288.769 225.443 286.306 226.056 283.844C226.669 281.69 229.122 280.459 231.575 281.074C234.027 281.69 235.254 284.152 234.334 286.614Z" fill="url(#paint74_radial)"/>
<path d="M386.707 235.83C388.546 237.061 391.306 236.753 392.532 234.906C393.758 233.06 393.452 230.29 391.612 229.058C389.773 227.827 387.013 228.135 385.787 229.982C384.561 231.828 384.867 234.599 386.707 235.83Z" fill="url(#paint75_radial)"/>
<path d="M226.671 387.261L225.138 386.953C234.029 355.559 258.249 328.473 288.294 316.47C318.34 304.466 354.516 307.544 382.416 324.472L381.496 326.011C354.21 309.39 318.646 306.313 288.907 318.009C259.169 329.704 235.562 356.482 226.671 387.261Z" fill="url(#paint76_radial)"/>
<path d="M230.35 388.184C229.737 390.338 227.284 391.877 225.138 391.262C222.992 390.646 221.459 388.184 222.072 386.029C222.685 383.875 225.138 382.336 227.284 382.952C229.43 383.259 230.963 385.722 230.35 388.184Z" fill="url(#paint77_radial)"/>
<path d="M379.656 328.781C381.802 330.012 384.255 329.397 385.481 327.242C386.707 325.088 386.094 322.625 383.948 321.394C381.802 320.163 379.349 320.779 378.123 322.933C376.897 325.088 377.51 327.55 379.656 328.781Z" fill="url(#paint78_radial)"/>
<defs>
<radialGradient id="paint0_radial" cx="0" cy="0" r="1" gradientUnits="userSpaceOnUse" gradientTransform="translate(426.574 405.092) rotate(-154.916) scale(564.637 566.853)">
<stop stop-color="#007B7B"/>
<stop offset="1" stop-color="#004059"/>
</radialGradient>
<radialGradient id="paint1_radial" cx="0" cy="0" r="1" gradientUnits="userSpaceOnUse" gradientTransform="translate(426.574 405.092) rotate(-154.916) scale(564.637 566.853)">
<stop stop-color="#007B7B"/>
<stop offset="1" stop-color="#004059"/>
</radialGradient>
<radialGradient id="paint2_radial" cx="0" cy="0" r="1" gradientUnits="userSpaceOnUse" gradientTransform="translate(426.574 405.092) rotate(-154.916) scale(564.637 566.853)">
<stop stop-color="#007B7B"/>
<stop offset="1" stop-color="#004059"/>
</radialGradient>
<radialGradient id="paint3_radial" cx="0" cy="0" r="1" gradientUnits="userSpaceOnUse" gradientTransform="translate(426.574 405.092) rotate(-154.916) scale(564.637 566.853)">
<stop stop-color="#007B7B"/>
<stop offset="1" stop-color="#004059"/>
</radialGradient>
<radialGradient id="paint4_radial" cx="0" cy="0" r="1" gradientUnits="userSpaceOnUse" gradientTransform="translate(426.574 405.092) rotate(-154.916) scale(564.637 566.853)">
<stop stop-color="#007B7B"/>
<stop offset="1" stop-color="#004059"/>
</radialGradient>
<radialGradient id="paint5_radial" cx="0" cy="0" r="1" gradientUnits="userSpaceOnUse" gradientTransform="translate(426.574 405.092) rotate(-154.916) scale(564.637 566.853)">
<stop stop-color="#007B7B"/>
<stop offset="1" stop-color="#004059"/>
</radialGradient>
<radialGradient id="paint6_radial" cx="0" cy="0" r="1" gradientUnits="userSpaceOnUse" gradientTransform="translate(426.574 405.092) rotate(-154.916) scale(564.637 566.853)">
<stop stop-color="#007B7B"/>
<stop offset="1" stop-color="#004059"/>
</radialGradient>
<radialGradient id="paint7_radial" cx="0" cy="0" r="1" gradientUnits="userSpaceOnUse" gradientTransform="translate(426.574 405.092) rotate(-154.916) scale(564.637 566.853)">
<stop stop-color="#007B7B"/>
<stop offset="1" stop-color="#004059"/>
</radialGradient>
<radialGradient id="paint8_radial" cx="0" cy="0" r="1" gradientUnits="userSpaceOnUse" gradientTransform="translate(426.574 405.092) rotate(-154.916) scale(564.637 566.853)">
<stop stop-color="#007B7B"/>
<stop offset="1" stop-color="#004059"/>
</radialGradient>
<radialGradient id="paint9_radial" cx="0" cy="0" r="1" gradientUnits="userSpaceOnUse" gradientTransform="translate(426.574 405.092) rotate(-154.916) scale(564.637 566.853)">
<stop stop-color="#007B7B"/>
<stop offset="1" stop-color="#004059"/>
</radialGradient>
<radialGradient id="paint10_radial" cx="0" cy="0" r="1" gradientUnits="userSpaceOnUse" gradientTransform="translate(426.574 405.092) rotate(-154.916) scale(564.637 566.853)">
<stop stop-color="#007B7B"/>
<stop offset="1" stop-color="#004059"/>
</radialGradient>
<radialGradient id="paint11_radial" cx="0" cy="0" r="1" gradientUnits="userSpaceOnUse" gradientTransform="translate(426.574 405.092) rotate(-154.916) scale(564.637 566.853)">
<stop stop-color="#007B7B"/>
<stop offset="1" stop-color="#004059"/>
</radialGradient>
<radialGradient id="paint12_radial" cx="0" cy="0" r="1" gradientUnits="userSpaceOnUse" gradientTransform="translate(426.574 405.092) rotate(-154.916) scale(564.637 566.853)">
<stop stop-color="#007B7B"/>
<stop offset="1" stop-color="#004059"/>
</radialGradient>
<radialGradient id="paint13_radial" cx="0" cy="0" r="1" gradientUnits="userSpaceOnUse" gradientTransform="translate(426.574 405.092) rotate(-154.916) scale(564.637 566.853)">
<stop stop-color="#007B7B"/>
<stop offset="1" stop-color="#004059"/>
</radialGradient>
<radialGradient id="paint14_radial" cx="0" cy="0" r="1" gradientUnits="userSpaceOnUse" gradientTransform="translate(426.574 405.092) rotate(-154.916) scale(564.637 566.853)">
<stop stop-color="#007B7B"/>
<stop offset="1" stop-color="#004059"/>
</radialGradient>
<radialGradient id="paint15_radial" cx="0" cy="0" r="1" gradientUnits="userSpaceOnUse" gradientTransform="translate(426.574 405.092) rotate(-154.916) scale(564.637 566.853)">
<stop stop-color="#007B7B"/>
<stop offset="1" stop-color="#004059"/>
</radialGradient>
<radialGradient id="paint16_radial" cx="0" cy="0" r="1" gradientUnits="userSpaceOnUse" gradientTransform="translate(426.574 405.092) rotate(-154.916) scale(564.637 566.853)">
<stop stop-color="#007B7B"/>
<stop offset="1" stop-color="#004059"/>
</radialGradient>
<radialGradient id="paint17_radial" cx="0" cy="0" r="1" gradientUnits="userSpaceOnUse" gradientTransform="translate(426.574 405.092) rotate(-154.916) scale(564.637 566.853)">
<stop stop-color="#007B7B"/>
<stop offset="1" stop-color="#004059"/>
</radialGradient>
<radialGradient id="paint18_radial" cx="0" cy="0" r="1" gradientUnits="userSpaceOnUse" gradientTransform="translate(426.574 405.092) rotate(-154.916) scale(564.637 566.853)">
<stop stop-color="#007B7B"/>
<stop offset="1" stop-color="#004059"/>
</radialGradient>
<radialGradient id="paint19_radial" cx="0" cy="0" r="1" gradientUnits="userSpaceOnUse" gradientTransform="translate(426.574 405.092) rotate(-154.916) scale(564.637 566.853)">
<stop stop-color="#007B7B"/>
<stop offset="1" stop-color="#004059"/>
</radialGradient>
<radialGradient id="paint20_radial" cx="0" cy="0" r="1" gradientUnits="userSpaceOnUse" gradientTransform="translate(426.574 405.092) rotate(-154.916) scale(564.637 566.853)">
<stop stop-color="#007B7B"/>
<stop offset="1" stop-color="#004059"/>
</radialGradient>
<radialGradient id="paint21_radial" cx="0" cy="0" r="1" gradientUnits="userSpaceOnUse" gradientTransform="translate(426.574 405.092) rotate(-154.916) scale(564.637 566.853)">
<stop stop-color="#007B7B"/>
<stop offset="1" stop-color="#004059"/>
</radialGradient>
<radialGradient id="paint22_radial" cx="0" cy="0" r="1" gradientUnits="userSpaceOnUse" gradientTransform="translate(426.574 405.092) rotate(-154.916) scale(564.637 566.853)">
<stop stop-color="#007B7B"/>
<stop offset="1" stop-color="#004059"/>
</radialGradient>
<radialGradient id="paint23_radial" cx="0" cy="0" r="1" gradientUnits="userSpaceOnUse" gradientTransform="translate(426.574 405.092) rotate(-154.916) scale(564.637 566.853)">
<stop stop-color="#007B7B"/>
<stop offset="1" stop-color="#004059"/>
</radialGradient>
<radialGradient id="paint24_radial" cx="0" cy="0" r="1" gradientUnits="userSpaceOnUse" gradientTransform="translate(426.574 405.092) rotate(-154.916) scale(564.637 566.853)">
<stop stop-color="#007B7B"/>
<stop offset="1" stop-color="#004059"/>
</radialGradient>
<radialGradient id="paint25_radial" cx="0" cy="0" r="1" gradientUnits="userSpaceOnUse" gradientTransform="translate(426.574 405.092) rotate(-154.916) scale(564.637 566.853)">
<stop stop-color="#007B7B"/>
<stop offset="1" stop-color="#004059"/>
</radialGradient>
<radialGradient id="paint26_radial" cx="0" cy="0" r="1" gradientUnits="userSpaceOnUse" gradientTransform="translate(426.574 405.092) rotate(-154.916) scale(564.637 566.853)">
<stop stop-color="#007B7B"/>
<stop offset="1" stop-color="#004059"/>
</radialGradient>
<radialGradient id="paint27_radial" cx="0" cy="0" r="1" gradientUnits="userSpaceOnUse" gradientTransform="translate(426.574 405.092) rotate(-154.916) scale(564.637 566.853)">
<stop stop-color="#007B7B"/>
<stop offset="1" stop-color="#004059"/>
</radialGradient>
<radialGradient id="paint28_radial" cx="0" cy="0" r="1" gradientUnits="userSpaceOnUse" gradientTransform="translate(426.574 405.092) rotate(-154.916) scale(564.637 566.853)">
<stop stop-color="#007B7B"/>
<stop offset="1" stop-color="#004059"/>
</radialGradient>
<radialGradient id="paint29_radial" cx="0" cy="0" r="1" gradientUnits="userSpaceOnUse" gradientTransform="translate(426.574 405.092) rotate(-154.916) scale(564.637 566.853)">
<stop stop-color="#007B7B"/>
<stop offset="1" stop-color="#004059"/>
</radialGradient>
<radialGradient id="paint30_radial" cx="0" cy="0" r="1" gradientUnits="userSpaceOnUse" gradientTransform="translate(426.574 405.092) rotate(-154.916) scale(564.637 566.853)">
<stop stop-color="#007B7B"/>
<stop offset="1" stop-color="#004059"/>
</radialGradient>
<radialGradient id="paint31_radial" cx="0" cy="0" r="1" gradientUnits="userSpaceOnUse" gradientTransform="translate(426.574 405.092) rotate(-154.916) scale(564.637 566.853)">
<stop stop-color="#007B7B"/>
<stop offset="1" stop-color="#004059"/>
</radialGradient>
<radialGradient id="paint32_radial" cx="0" cy="0" r="1" gradientUnits="userSpaceOnUse" gradientTransform="translate(426.574 405.092) rotate(-154.916) scale(564.637 566.853)">
<stop stop-color="#007B7B"/>
<stop offset="1" stop-color="#004059"/>
</radialGradient>
<radialGradient id="paint33_radial" cx="0" cy="0" r="1" gradientUnits="userSpaceOnUse" gradientTransform="translate(426.574 405.092) rotate(-154.916) scale(564.637 566.853)">
<stop stop-color="#007B7B"/>
<stop offset="1" stop-color="#004059"/>
</radialGradient>
<radialGradient id="paint34_radial" cx="0" cy="0" r="1" gradientUnits="userSpaceOnUse" gradientTransform="translate(426.574 405.092) rotate(-154.916) scale(564.637 566.853)">
<stop stop-color="#007B7B"/>
<stop offset="1" stop-color="#004059"/>
</radialGradient>
<radialGradient id="paint35_radial" cx="0" cy="0" r="1" gradientUnits="userSpaceOnUse" gradientTransform="translate(426.574 405.092) rotate(-154.916) scale(564.637 566.853)">
<stop stop-color="#007B7B"/>
<stop offset="1" stop-color="#004059"/>
</radialGradient>
<radialGradient id="paint36_radial" cx="0" cy="0" r="1" gradientUnits="userSpaceOnUse" gradientTransform="translate(426.574 405.092) rotate(-154.916) scale(564.637 566.853)">
<stop stop-color="#007B7B"/>
<stop offset="1" stop-color="#004059"/>
</radialGradient>
<radialGradient id="paint37_radial" cx="0" cy="0" r="1" gradientUnits="userSpaceOnUse" gradientTransform="translate(426.574 405.092) rotate(-154.916) scale(564.637 566.853)">
<stop stop-color="#007B7B"/>
<stop offset="1" stop-color="#004059"/>
</radialGradient>
<radialGradient id="paint38_radial" cx="0" cy="0" r="1" gradientUnits="userSpaceOnUse" gradientTransform="translate(426.574 405.092) rotate(-154.916) scale(564.637 566.853)">
<stop stop-color="#007B7B"/>
<stop offset="1" stop-color="#004059"/>
</radialGradient>
<radialGradient id="paint39_radial" cx="0" cy="0" r="1" gradientUnits="userSpaceOnUse" gradientTransform="translate(426.574 405.092) rotate(-154.916) scale(564.637 566.853)">
<stop stop-color="#007B7B"/>
<stop offset="1" stop-color="#004059"/>
</radialGradient>
<radialGradient id="paint40_radial" cx="0" cy="0" r="1" gradientUnits="userSpaceOnUse" gradientTransform="translate(426.574 405.092) rotate(-154.916) scale(564.637 566.853)">
<stop stop-color="#007B7B"/>
<stop offset="1" stop-color="#004059"/>
</radialGradient>
<radialGradient id="paint41_radial" cx="0" cy="0" r="1" gradientUnits="userSpaceOnUse" gradientTransform="translate(426.574 405.092) rotate(-154.916) scale(564.637 566.853)">
<stop stop-color="#007B7B"/>
<stop offset="1" stop-color="#004059"/>
</radialGradient>
<radialGradient id="paint42_radial" cx="0" cy="0" r="1" gradientUnits="userSpaceOnUse" gradientTransform="translate(426.574 405.092) rotate(-154.916) scale(564.637 566.853)">
<stop stop-color="#007B7B"/>
<stop offset="1" stop-color="#004059"/>
</radialGradient>
<radialGradient id="paint43_radial" cx="0" cy="0" r="1" gradientUnits="userSpaceOnUse" gradientTransform="translate(426.574 405.092) rotate(-154.916) scale(564.637 566.853)">
<stop stop-color="#007B7B"/>
<stop offset="1" stop-color="#004059"/>
</radialGradient>
<radialGradient id="paint44_radial" cx="0" cy="0" r="1" gradientUnits="userSpaceOnUse" gradientTransform="translate(426.574 405.092) rotate(-154.916) scale(564.637 566.853)">
<stop stop-color="#007B7B"/>
<stop offset="1" stop-color="#004059"/>
</radialGradient>
<radialGradient id="paint45_radial" cx="0" cy="0" r="1" gradientUnits="userSpaceOnUse" gradientTransform="translate(426.574 405.092) rotate(-154.916) scale(564.637 566.853)">
<stop stop-color="#007B7B"/>
<stop offset="1" stop-color="#004059"/>
</radialGradient>
<radialGradient id="paint46_radial" cx="0" cy="0" r="1" gradientUnits="userSpaceOnUse" gradientTransform="translate(249.576 174.648) scale(69.212 69.4836)">
<stop stop-color="white"/>
<stop offset="0.9988" stop-color="white"/>
</radialGradient>
<radialGradient id="paint47_radial" cx="0" cy="0" r="1" gradientUnits="userSpaceOnUse" gradientTransform="translate(179.742 242.306) scale(3.88104 3.89628)">
<stop stop-color="white"/>
<stop offset="0.9988" stop-color="white"/>
</radialGradient>
<radialGradient id="paint48_radial" cx="0" cy="0" r="1" gradientUnits="userSpaceOnUse" gradientTransform="translate(320.025 107.579) scale(3.88076 3.89598)">
<stop stop-color="white"/>
<stop offset="0.9988" stop-color="white"/>
</radialGradient>
<radialGradient id="paint49_radial" cx="0" cy="0" r="1" gradientUnits="userSpaceOnUse" gradientTransform="translate(384.208 182.302) rotate(6.43219) scale(81.4169 81.7284)">
<stop stop-color="white"/>
<stop offset="0.9988" stop-color="white"/>
</radialGradient>
<radialGradient id="paint50_radial" cx="0" cy="0" r="1" gradientUnits="userSpaceOnUse" gradientTransform="translate(280.185 229.315) rotate(6.43219) scale(4.29076 4.30717)">
<stop stop-color="white"/>
<stop offset="0.9988" stop-color="white"/>
</radialGradient>
<radialGradient id="paint51_radial" cx="0" cy="0" r="1" gradientUnits="userSpaceOnUse" gradientTransform="translate(488.435 138.813) rotate(6.43219) scale(4.29014 4.30655)">
<stop stop-color="white"/>
<stop offset="0.9988" stop-color="white"/>
</radialGradient>
<radialGradient id="paint52_radial" cx="0" cy="0" r="1" gradientUnits="userSpaceOnUse" gradientTransform="translate(450.803 89.9228) rotate(9.6217) scale(81.4147 81.7164)">
<stop stop-color="white"/>
<stop offset="0.9988" stop-color="white"/>
</radialGradient>
<radialGradient id="paint53_radial" cx="0" cy="0" r="1" gradientUnits="userSpaceOnUse" gradientTransform="translate(344.352 131.072) rotate(9.6217) scale(4.29062 4.30653)">
<stop stop-color="white"/>
<stop offset="0.9988" stop-color="white"/>
</radialGradient>
<radialGradient id="paint54_radial" cx="0" cy="0" r="1" gradientUnits="userSpaceOnUse" gradientTransform="translate(557.26 52.3045) rotate(9.62165) scale(4.29004 4.30592)">
<stop stop-color="white"/>
<stop offset="0.9988" stop-color="white"/>
</radialGradient>
<radialGradient id="paint55_radial" cx="0" cy="0" r="1" gradientUnits="userSpaceOnUse" gradientTransform="translate(331.245 281.588) scale(47.4638 47.6501)">
<stop stop-color="white"/>
<stop offset="0.9988" stop-color="white"/>
</radialGradient>
<radialGradient id="paint56_radial" cx="0" cy="0" r="1" gradientUnits="userSpaceOnUse" gradientTransform="translate(274.023 315.62) scale(2.50141 2.51127)">
<stop stop-color="white"/>
<stop offset="0.9988" stop-color="white"/>
</radialGradient>
<radialGradient id="paint57_radial" cx="0" cy="0" r="1" gradientUnits="userSpaceOnUse" gradientTransform="translate(388.81 249.584) scale(2.50111 2.51093)">
<stop stop-color="white"/>
<stop offset="0.9988" stop-color="white"/>
</radialGradient>
<radialGradient id="paint58_radial" cx="0" cy="0" r="1" gradientUnits="userSpaceOnUse" gradientTransform="translate(314.945 368.668) scale(47.4638 47.6501)">
<stop stop-color="white"/>
<stop offset="0.9988" stop-color="white"/>
</radialGradient>
<radialGradient id="paint59_radial" cx="0" cy="0" r="1" gradientUnits="userSpaceOnUse" gradientTransform="translate(257.726 402.7) scale(2.50143 2.51124)">
<stop stop-color="white"/>
<stop offset="0.9988" stop-color="white"/>
</radialGradient>
<radialGradient id="paint60_radial" cx="0" cy="0" r="1" gradientUnits="userSpaceOnUse" gradientTransform="translate(372.512 336.665) scale(2.5011 2.51092)">
<stop stop-color="white"/>
<stop offset="0.9988" stop-color="white"/>
</radialGradient>
<radialGradient id="paint61_radial" cx="0" cy="0" r="1" gradientUnits="userSpaceOnUse" gradientTransform="translate(321.717 288.72) rotate(45.1122) scale(47.5566 47.5562)">
<stop stop-color="white"/>
<stop offset="0.9988" stop-color="white"/>
</radialGradient>
<radialGradient id="paint62_radial" cx="0" cy="0" r="1" gradientUnits="userSpaceOnUse" gradientTransform="translate(257.288 272.164) rotate(45.1125) scale(2.50632)">
<stop stop-color="white"/>
<stop offset="0.9988" stop-color="white"/>
</radialGradient>
<radialGradient id="paint63_radial" cx="0" cy="0" r="1" gradientUnits="userSpaceOnUse" gradientTransform="translate(384.964 306.955) rotate(45.1124) scale(2.506)">
<stop stop-color="white"/>
<stop offset="0.9988" stop-color="white"/>
</radialGradient>
<radialGradient id="paint64_radial" cx="0" cy="0" r="1" gradientUnits="userSpaceOnUse" gradientTransform="translate(155.327 218.046) rotate(45.1122) scale(47.5566 47.5562)">
<stop stop-color="white"/>
<stop offset="0.9988" stop-color="white"/>
</radialGradient>
<radialGradient id="paint65_radial" cx="0" cy="0" r="1" gradientUnits="userSpaceOnUse" gradientTransform="translate(90.8992 201.49) rotate(45.1121) scale(2.50631)">
<stop stop-color="white"/>
<stop offset="0.9988" stop-color="white"/>
</radialGradient>
<radialGradient id="paint66_radial" cx="0" cy="0" r="1" gradientUnits="userSpaceOnUse" gradientTransform="translate(218.575 236.281) rotate(45.1123) scale(2.506)">
<stop stop-color="white"/>
<stop offset="0.9988" stop-color="white"/>
</radialGradient>
<radialGradient id="paint67_radial" cx="0" cy="0" r="1" gradientUnits="userSpaceOnUse" gradientTransform="translate(266.279 368.077) rotate(45.1122) scale(47.5566 47.5562)">
<stop stop-color="white"/>
<stop offset="0.9988" stop-color="white"/>
</radialGradient>
<radialGradient id="paint68_radial" cx="0" cy="0" r="1" gradientUnits="userSpaceOnUse" gradientTransform="translate(201.85 351.522) rotate(45.1121) scale(2.50631)">
<stop stop-color="white"/>
<stop offset="0.9988" stop-color="white"/>
</radialGradient>
<radialGradient id="paint69_radial" cx="0" cy="0" r="1" gradientUnits="userSpaceOnUse" gradientTransform="translate(329.527 386.313) rotate(45.1124) scale(2.506)">
<stop stop-color="white"/>
<stop offset="0.9988" stop-color="white"/>
</radialGradient>
<radialGradient id="paint70_radial" cx="0" cy="0" r="1" gradientUnits="userSpaceOnUse" gradientTransform="translate(341.819 494.528) rotate(64.5753) scale(58.5504 58.406)">
<stop stop-color="white"/>
<stop offset="0.9988" stop-color="white"/>
</radialGradient>
<radialGradient id="paint71_radial" cx="0" cy="0" r="1" gradientUnits="userSpaceOnUse" gradientTransform="translate(273.894 448.802) rotate(64.5754) scale(3.08551 3.07789)">
<stop stop-color="white"/>
<stop offset="0.9988" stop-color="white"/>
</radialGradient>
<radialGradient id="paint72_radial" cx="0" cy="0" r="1" gradientUnits="userSpaceOnUse" gradientTransform="translate(407.682 541.713) rotate(64.5751) scale(3.08515 3.07756)">
<stop stop-color="white"/>
<stop offset="0.9988" stop-color="white"/>
</radialGradient>
<radialGradient id="paint73_radial" cx="0" cy="0" r="1" gradientUnits="userSpaceOnUse" gradientTransform="translate(310.05 250.962) rotate(3.23995) scale(61.9933 62.2351)">
<stop stop-color="white"/>
<stop offset="0.9988" stop-color="white"/>
</radialGradient>
<radialGradient id="paint74_radial" cx="0" cy="0" r="1" gradientUnits="userSpaceOnUse" gradientTransform="translate(230.308 285.121) rotate(3.23995) scale(4.29034 4.30707)">
<stop stop-color="white"/>
<stop offset="0.9988" stop-color="white"/>
</radialGradient>
<radialGradient id="paint75_radial" cx="0" cy="0" r="1" gradientUnits="userSpaceOnUse" gradientTransform="translate(389.17 232.297) rotate(3.23998) scale(4.28969 4.30645)">
<stop stop-color="white"/>
<stop offset="0.9988" stop-color="white"/>
</radialGradient>
<radialGradient id="paint76_radial" cx="0" cy="0" r="1" gradientUnits="userSpaceOnUse" gradientTransform="translate(303.812 348.321) scale(61.9935 62.2367)">
<stop stop-color="white"/>
<stop offset="0.9988" stop-color="white"/>
</radialGradient>
<radialGradient id="paint77_radial" cx="0" cy="0" r="1" gradientUnits="userSpaceOnUse" gradientTransform="translate(226.113 386.933) scale(4.29033 4.30716)">
<stop stop-color="white"/>
<stop offset="0.9988" stop-color="white"/>
</radialGradient>
<radialGradient id="paint78_radial" cx="0" cy="0" r="1" gradientUnits="userSpaceOnUse" gradientTransform="translate(381.763 325.213) scale(4.28972 4.30657)">
<stop stop-color="white"/>
<stop offset="0.9988" stop-color="white"/>
</radialGradient>
</defs>
</svg>
